<svg  width="60" height="60" viewBox="0 0 60 60" fill="current"  xmlns="http://www.w3.org/2000/svg">
<path d="M52.8614 14.2191L32.1909 2.21673C30.8873 1.47423 29.19 1.47423 27.8761 2.21673L6.98484 14.2191C5.63953 14.993 4.6875 16.4475 4.6875 18.0033V41.9761C4.6875 43.5319 5.66438 44.9869 7.00969 45.765L12.5292 48.9C15.1673 50.1994 16.0997 50.1994 17.3002 50.1994C21.2063 50.1994 23.4375 47.8373 23.4375 43.7175V20.0503C23.4375 19.7161 23.2636 19.2188 22.9355 19.2188H20.2997C19.9659 19.2188 19.2188 19.7161 19.2188 20.0498V43.717C19.2188 45.5433 17.5669 47.3606 14.4797 45.817L8.77641 42.5297C8.57766 42.4219 8.4375 42.2048 8.4375 41.9761V18.0033C8.4375 17.7774 8.69766 17.5505 8.89781 17.4347L29.7216 5.45298C29.9161 5.34282 30.202 5.34282 30.3961 5.45298L50.9658 17.4319C51.1627 17.5505 51.0933 17.7703 51.0933 18.0033V41.9761C51.0933 42.2048 51.1791 42.4275 50.9845 42.5377L30.3192 54.5264C30.142 54.6328 29.9222 54.6328 29.7281 54.5264L24.428 51.3628C24.2681 51.27 24.0783 51.2367 23.925 51.3225C22.4503 52.1583 22.1784 52.2694 20.7952 52.7489C20.4548 52.8675 19.9528 53.0733 20.9873 53.6531L27.9239 57.7566C28.5861 58.1391 29.3374 58.3405 30.1022 58.3406C30.8719 58.3406 31.6256 58.1409 32.2898 57.7566L52.8609 45.765C54.2062 44.9813 54.8438 43.5319 54.8438 41.9761V18.0033C54.8438 16.4475 54.2063 14.9967 52.8614 14.2191ZM36.5203 38.1773C31.0238 38.1773 29.813 36.6609 29.4094 33.9277C29.3625 33.6333 29.1127 33.2813 28.8131 33.2813H26.1267C25.7944 33.2813 25.5272 33.6844 25.5272 34.0153C25.5272 37.515 27.4298 41.7553 36.5208 41.7553C43.1016 41.7553 46.8745 39.1983 46.8745 34.673C46.8745 30.1861 43.8431 29.0086 37.4611 28.1639C31.0102 27.3113 30.3548 26.8805 30.3548 25.3692C30.3548 24.1233 30.9098 22.4616 35.6864 22.4616C39.9544 22.4616 41.5275 23.3775 42.1748 26.2542C42.2302 26.5247 42.4772 26.7188 42.7561 26.7188H45.4533C45.6192 26.7188 45.7777 26.6517 45.8939 26.5331C46.0064 26.4056 46.0659 26.2458 46.0509 26.0742C45.6333 21.1205 42.3422 18.8119 35.6859 18.8119C29.7652 18.8119 26.2331 21.3122 26.2331 25.5033C26.2331 30.0492 29.7473 31.3055 35.4309 31.8675C42.2302 32.5341 42.7589 33.5278 42.7589 34.8652C42.7589 37.1878 40.8942 38.1773 36.5203 38.1773Z" fill="#83CD29"/>
</svg>
