<svg width="50" height="50" viewBox="0 0 50 50" fill="none" xmlns="http://www.w3.org/2000/svg">
<path d="M6.25165 11.934C6.25519 11.9737 6.25698 12.0137 6.257 12.0536V16.0715H16.8249C17.4159 16.0715 17.9838 15.8357 18.4016 15.4179L21.7677 12.0536L18.4052 8.68932C18.1979 8.48206 17.9518 8.31767 17.6809 8.20553C17.4101 8.09338 17.1198 8.03569 16.8266 8.03575H10.2677C9.22283 8.03575 8.21905 8.4428 7.46929 9.17056C6.71952 9.89832 6.28276 10.8895 6.25165 11.934ZM3.57843 17.5465C3.57375 17.5014 3.57137 17.4561 3.57129 17.4107V12.0536C3.57129 10.2776 4.2768 8.57434 5.53263 7.31852C6.78845 6.06269 8.49171 5.35718 10.2677 5.35718H16.8249C18.1266 5.35718 19.3749 5.87503 20.2963 6.79468L24.2159 10.7143H39.7338C41.5095 10.7148 43.2123 11.4205 44.4677 12.6763C45.7232 13.9321 46.4284 15.6351 46.4284 17.4107V36.1607C46.4284 37.9368 45.7229 39.64 44.4671 40.8958C43.2113 42.1517 41.508 42.8572 39.732 42.8572H10.2731C8.49707 42.8572 6.79381 42.1517 5.53798 40.8958C4.28216 39.64 3.57665 37.9368 3.57665 36.1607L3.57843 17.5465ZM6.257 18.75V36.1607C6.257 37.2264 6.68031 38.2483 7.43381 39.0018C8.1873 39.7553 9.20926 40.1786 10.2749 40.1786H39.732C40.7976 40.1786 41.8196 39.7553 42.5731 39.0018C43.3266 38.2483 43.7499 37.2264 43.7499 36.1607V17.4107C43.7499 16.3451 43.3266 15.3232 42.5731 14.5697C41.8196 13.8162 40.7976 13.3929 39.732 13.3929H24.2141L20.2963 17.3125C19.3755 18.2329 18.1268 18.75 16.8249 18.75H6.257Z" fill="#0057A7"/>
</svg>
