<svg width="83" height="87" viewBox="0 0 83 87" fill="none" xmlns="http://www.w3.org/2000/svg">
<path d="M43.3121 2.84994L74.2522 21.5741C75.2999 22.2081 75.9401 23.3437 75.9401 24.5684V62.4316C75.9401 63.6563 75.2999 64.7919 74.2522 65.4259L43.3121 84.1501C42.1981 84.8242 40.8019 84.8242 39.6879 84.1501L8.74783 65.4259C7.70007 64.7919 7.05994 63.6562 7.05994 62.4316V24.5684C7.05994 23.3437 7.70007 22.2081 8.74783 21.5741L39.6879 2.84994C40.8019 2.17576 42.1981 2.17576 43.3121 2.84994Z" stroke="#0057A7" stroke-width="3"/>
<g clip-path="url(#clip0_481_2)">
<path id="star" d="M41.6611 54.2666L42.5885 59.1668L47.245 60.1428L42.5885 61.1188L41.6611 66.0191L40.7336 61.1188L36.0771 60.1428L40.7336 59.1668L41.6611 54.2666Z" fill="#0057A7"/>
</g>
<path d="M38.4955 28L30 55H33.3153L40.7748 30.1429H42.018L49.6847 55H53L44.0901 28H38.4955Z" fill="#0057A7" stroke="#0057A7"/>
<path d="M25.2886 37.808V39.984L14.6646 44.464L25.2886 48.848V51.024L12.2966 45.552V43.376L25.2886 37.808Z" fill="#0057A7"/>
<path d="M58.1441 38.4987L71.1361 44.0667V46.2427L58.1441 51.7147V49.5387L68.7681 45.1547L58.1441 40.6747V38.4987Z" fill="#0057A7"/>
<defs>
<clipPath id="clip0_481_2">
<rect width="12.4664" height="13.119" fill="white" transform="translate(35.4277 53.5833)"/>
</clipPath>
</defs>
</svg>
