<svg width="103" height="30" viewBox="0 0 103 30" fill="current" xmlns="http://www.w3.org/2000/svg">
<g clip-path="url(#clip0_290_1412)">
<path d="M0.670305 23.281V11.8083H14.9825V11.1372H0.670305V0.670873H15.8873V0H0V23.9519H16.0213V23.281H0.670305ZM28.9259 6.70913L22.9933 14.5254L17.1946 6.70933H16.3231L22.591 15.0288L15.7196 23.9517H16.5241L22.9929 15.5315L29.4954 23.9517H30.3333L23.4287 15.0284L29.73 6.70893H28.9257L28.9259 6.70913ZM32.3446 29.856V19.1215H32.4116C32.8139 20.6869 33.6072 21.9449 34.7915 22.8954C35.9758 23.8458 37.484 24.3211 39.3162 24.3211C40.5005 24.3211 41.5508 24.0807 42.467 23.5999C43.3831 23.1191 44.1484 22.465 44.763 21.6375C45.3773 20.8099 45.8467 19.8483 46.1708 18.7524C46.4946 17.6567 46.6568 16.5048 46.6568 15.2974C46.6568 14.0001 46.489 12.8036 46.1539 11.7079C45.8187 10.6119 45.3327 9.66141 44.696 8.85644C44.0591 8.05128 43.2882 7.4249 42.3831 6.97792C41.4782 6.53054 40.4559 6.30685 39.3162 6.30685C38.4448 6.30685 37.6348 6.4355 36.8863 6.69262C36.1377 6.94993 35.473 7.31315 34.8921 7.78289C34.3077 8.25623 33.799 8.81618 33.3837 9.44336C32.9592 10.0808 32.6351 10.7797 32.4116 11.5401H32.3446V6.70913H31.6743V29.856H32.3446ZM39.3162 23.6835C37.216 23.6835 35.5288 22.9623 34.2551 21.5199C32.9815 20.0774 32.3446 18.003 32.3446 15.297C32.3446 14.1787 32.5011 13.1164 32.8139 12.1101C33.1268 11.1038 33.5792 10.2203 34.1713 9.46007C34.7635 8.6996 35.4954 8.09577 36.3666 7.64859C37.2381 7.20121 38.2215 6.97752 39.3162 6.97752C40.4335 6.97752 41.4112 7.20121 42.2491 7.64859C43.087 8.09577 43.7798 8.70524 44.3272 9.47678C44.8746 10.2483 45.288 11.1318 45.5674 12.1268C45.8467 13.1221 45.9863 14.1787 45.9863 15.297C45.9863 16.3035 45.8579 17.3044 45.6008 18.2994C45.3439 19.2946 44.9472 20.1892 44.4109 20.9833C43.8748 21.777 43.1878 22.4255 42.3497 22.9289C41.5116 23.432 40.5005 23.6835 39.3162 23.6835ZM50.3437 23.9519V14.19C50.3437 13.2507 50.4776 12.3336 50.746 11.4393C51.014 10.5447 51.4274 9.75624 51.986 9.0743C52.5447 8.39215 53.254 7.85537 54.1144 7.46396C54.9746 7.07255 55.997 6.91047 57.1813 6.97752V6.30664C56.1533 6.2845 55.2541 6.39604 54.4832 6.64208C53.7121 6.88812 53.0474 7.22356 52.4888 7.64859C51.9301 8.07342 51.4833 8.57094 51.1482 9.14134C50.8133 9.71084 50.5647 10.327 50.4107 10.9695H50.3437V6.70913H49.6734V23.9521L50.3437 23.9519ZM58.0192 15.4647H72.4317C72.4766 14.2794 72.3593 13.139 72.0799 12.0431C71.8007 10.9472 71.3537 9.9743 70.7393 9.12463C70.1247 8.27477 69.3315 7.59262 68.3594 7.07819C67.3873 6.56376 66.231 6.30664 64.8904 6.30664C63.9294 6.30664 62.9909 6.50799 62.0748 6.91067C61.1587 7.31315 60.3542 7.90007 59.6615 8.67161C58.9689 9.44315 58.4103 10.3881 57.9858 11.5065C57.5613 12.6246 57.3489 13.8993 57.3489 15.3306C57.3489 16.6053 57.4941 17.7962 57.7846 18.9032C58.0751 20.0102 58.5219 20.972 59.1252 21.7883C59.7287 22.6045 60.5053 23.2363 61.4548 23.6835C62.4043 24.1309 63.5496 24.3433 64.8904 24.3209C66.8567 24.3209 68.5103 23.7672 69.8509 22.6605C71.1917 21.5533 71.9849 19.9935 72.2308 17.9807H71.5605C71.27 19.8817 70.5268 21.3074 69.3315 22.2578C68.1359 23.2083 66.6334 23.6835 64.8232 23.6835C63.5942 23.6835 62.5552 23.4711 61.7061 23.0462C60.8571 22.6214 60.1643 22.0397 59.6279 21.3018C59.0918 20.5637 58.6951 19.6971 58.4382 18.7019C58.1811 17.7068 58.0415 16.6277 58.0192 15.4647ZM71.7614 14.7938H58.0194C58.0862 13.5862 58.3097 12.5015 58.6895 11.5399C59.0695 10.5781 59.5666 9.75624 60.1812 9.0743C60.7956 8.39215 61.5107 7.87228 62.3263 7.5143C63.1418 7.15651 64.0189 6.97752 64.9574 6.97752C66.0747 6.97752 67.0576 7.1845 67.907 7.59826C68.7559 8.01201 69.4655 8.57678 70.0354 9.29235C70.6051 10.0079 71.0352 10.8411 71.3257 11.7914C71.6162 12.7419 71.7614 13.7428 71.7614 14.7938ZM86.3418 11.8083H87.0121C87.0121 9.8849 86.4534 8.48718 85.3363 7.61497C84.2188 6.74275 82.6993 6.30664 80.7778 6.30664C79.7051 6.30664 78.8002 6.44094 78.0627 6.70933C77.3254 6.97752 76.7221 7.32423 76.2528 7.74906C75.7837 8.17389 75.4485 8.64362 75.2473 9.15805C75.0462 9.67248 74.9456 10.1646 74.9456 10.6341C74.9456 11.5734 75.1132 12.3226 75.4485 12.8817C75.7837 13.4408 76.3087 13.8769 77.0237 14.19C77.5153 14.4135 78.0738 14.6148 78.6996 14.794C79.3253 14.9728 80.0515 15.1629 80.8783 15.364C81.6156 15.5432 82.3419 15.722 83.057 15.9008C83.772 16.0798 84.4033 16.3202 84.9507 16.622C85.4982 16.924 85.9451 17.3098 86.2915 17.7795C86.6377 18.2491 86.8109 18.8642 86.8109 19.6244C86.8109 20.3626 86.6379 20.9887 86.2915 21.503C85.948 22.0147 85.4959 22.4443 84.9676 22.7611C84.4312 23.0853 83.8334 23.3201 83.1743 23.4654C82.5151 23.6108 81.8727 23.6835 81.2471 23.6835C79.2136 23.6835 77.655 23.2307 76.5713 22.325C75.4875 21.4192 74.9458 19.9935 74.9458 18.0477H74.2753C74.2753 20.2172 74.8619 21.805 76.0349 22.8115C77.2082 23.8178 78.9455 24.3209 81.2471 24.3209C81.9844 24.3209 82.7273 24.237 83.4761 24.0693C84.2244 23.9015 84.8949 23.6277 85.487 23.2474C86.074 22.8724 86.5671 22.3675 86.9282 21.7715C87.2969 21.1675 87.4814 20.4296 87.4814 19.5574C87.4814 18.7299 87.3193 18.059 86.9954 17.5446C86.6713 17.0303 86.2468 16.6053 85.7215 16.2699C85.1965 15.9344 84.6044 15.6717 83.9452 15.4816C83.2822 15.2904 82.6174 15.1058 81.9508 14.9279C81.1304 14.7125 80.3092 14.5001 79.4872 14.2907C78.7835 14.1117 78.1299 13.8993 77.5266 13.6532C76.9456 13.4072 76.4819 13.055 76.1355 12.5966C75.7891 12.1381 75.6161 11.484 75.6161 10.6341C75.6161 10.4777 75.6607 10.198 75.7501 9.7955C75.8394 9.39282 76.0518 8.9847 76.387 8.57094C76.7221 8.15738 77.2359 7.78832 77.9287 7.46396C78.6214 7.1398 79.5711 6.97752 80.7778 6.97752C81.6046 6.97752 82.3586 7.06711 83.0401 7.24591C83.7217 7.4249 84.3083 7.71 84.7998 8.10141C85.2914 8.49282 85.6713 8.99034 85.9394 9.59416C86.2076 10.1982 86.3418 10.9361 86.3418 11.8083ZM101.86 11.8083H102.531C102.531 9.8849 101.972 8.48718 100.855 7.61497C99.7376 6.74275 98.2181 6.30664 96.2963 6.30664C95.2239 6.30664 94.3188 6.44094 93.5815 6.70933C92.844 6.97752 92.2407 7.32423 91.7716 7.74906C91.3023 8.17389 90.9671 8.64362 90.7659 9.15805C90.5648 9.67248 90.4644 10.1646 90.4644 10.6341C90.4644 11.5734 90.632 12.3226 90.9673 12.8817C91.3023 13.4408 91.8275 13.8769 92.5425 14.19C93.0341 14.4135 93.5926 14.6148 94.2182 14.794C94.8439 14.9728 95.5701 15.1629 96.3969 15.364C97.1344 15.5432 97.8607 15.722 98.5756 15.9008C99.2908 16.0798 99.9219 16.3202 100.469 16.622C101.017 16.924 101.464 17.3098 101.81 17.7795C102.156 18.2491 102.33 18.8642 102.33 19.6244C102.33 20.3626 102.156 20.9887 101.81 21.503C101.467 22.0147 101.015 22.4443 100.486 22.7611C99.9498 23.0853 99.3521 23.3201 98.6929 23.4654C98.0339 23.6108 97.3913 23.6835 96.7657 23.6835C94.7322 23.6835 93.1738 23.2307 92.09 22.325C91.0061 21.4192 90.4644 19.9935 90.4644 18.0477H89.7941C89.7941 20.2172 90.3805 21.805 91.5537 22.8115C92.7268 23.8178 94.4641 24.3209 96.7657 24.3209C97.5032 24.3209 98.2461 24.237 98.9947 24.0693C99.743 23.9015 100.414 23.6277 101.006 23.2474C101.593 22.8724 102.086 22.3675 102.447 21.7715C102.816 21.1675 103 20.4296 103 19.5574C103 18.7299 102.838 18.059 102.514 17.5446C102.19 17.0303 101.766 16.6053 101.24 16.2699C100.715 15.9344 100.123 15.6717 99.464 15.4816C98.801 15.2904 98.1362 15.1058 97.4696 14.9279C96.6492 14.7125 95.828 14.5001 95.006 14.2907C94.3021 14.1117 93.6485 13.8993 93.0452 13.6532C92.4642 13.4072 92.0005 13.055 91.6543 12.5966C91.3079 12.1381 91.1347 11.484 91.1347 10.6341C91.1347 10.4777 91.1793 10.198 91.2689 9.7955C91.3582 9.39282 91.5706 8.9847 91.9056 8.57094C92.2407 8.15738 92.7547 7.78832 93.4474 7.46396C94.1402 7.1398 95.0897 6.97752 96.2966 6.97752C97.1234 6.97752 97.8774 7.06711 98.5589 7.24591C99.2405 7.4249 99.8269 7.71 100.319 8.10141C100.81 8.49282 101.19 8.99034 101.458 9.59416C101.726 10.1982 101.861 10.9361 101.861 11.8083H101.86Z" fill="#222222"/>
</g>
<defs>
<clipPath id="clip0_290_1412">
<rect width="103" height="30" fill="white"/>
</clipPath>
</defs>
</svg>
