<svg width="68" height="60" viewBox="0 0 68 60" fill="current" xmlns="http://www.w3.org/2000/svg">
<g clip-path="url(#clip0_290_1410)">
<path d="M55.3726 19.4273C54.6559 19.1813 53.9331 18.9535 53.2049 18.7439C53.3272 18.2439 53.4398 17.75 53.5398 17.2647C55.1808 9.29601 54.108 2.87627 50.4436 0.762586C46.9303 -1.26373 41.1845 0.849165 35.3816 5.90101C34.8097 6.39978 34.2505 6.91293 33.7045 7.43995C33.339 7.0895 32.967 6.74584 32.5888 6.40916C26.5071 1.00759 20.4111 -1.26899 16.7507 0.850744C13.2405 2.88338 12.2011 8.91838 13.6785 16.4705C13.8255 17.2184 13.9915 17.9625 14.1763 18.7021C13.3134 18.9473 12.4808 19.2084 11.6839 19.4863C4.55355 21.9731 0 25.8702 0 29.9126C0 34.0876 4.88844 38.2752 12.315 40.8144C12.9171 41.0194 13.5242 41.2094 14.1358 41.3842C13.9371 42.1807 13.7608 42.9826 13.607 43.7889C12.1985 51.21 13.2984 57.1023 16.7991 59.1221C20.4148 61.2079 26.4834 59.0642 32.3923 53.8971C32.8714 53.477 33.34 53.045 33.7976 52.6015C34.3889 53.1722 34.996 53.7263 35.6181 54.2631C41.3421 59.19 46.995 61.1794 50.4923 59.1542C54.1046 57.0623 55.2787 50.7323 53.7544 43.031C53.6344 42.4277 53.4997 41.8273 53.3506 41.2305C53.7768 41.1042 54.1951 40.9742 54.6028 40.8389C62.3235 38.2802 67.3469 34.1434 67.3469 29.9126C67.3469 25.8555 62.6463 21.9321 55.3726 19.4273ZM53.6981 38.1073C53.3298 38.2292 52.9521 38.3468 52.5669 38.4613C51.7146 35.7621 50.5644 32.8921 49.1567 29.9265C50.4999 27.0318 51.6059 24.1984 52.4343 21.5168C53.1233 21.7163 53.7918 21.9265 54.4363 22.1484C60.6685 24.2947 64.47 27.4676 64.47 29.9126C64.47 32.5168 60.3644 35.8976 53.6981 38.1073ZM50.9322 43.59C51.6062 46.9952 51.7022 50.0742 51.2558 52.4813C50.8548 54.6442 50.0482 56.086 49.0507 56.6636C46.9285 57.8926 42.3896 56.2952 37.4946 52.0815C36.9159 51.5824 36.3513 51.0673 35.8012 50.5368C37.699 48.4607 39.5955 46.0473 41.4465 43.3668C44.7023 43.0779 47.7782 42.6052 50.5676 41.9602C50.7019 42.5005 50.8235 43.0439 50.9322 43.59ZM22.96 56.4513C20.8865 57.1836 19.2349 57.2047 18.2366 56.6289C16.1122 55.4034 15.2291 50.6721 16.4337 44.3257C16.5769 43.5758 16.7409 42.83 16.9254 42.0892C19.684 42.6997 22.7375 43.1386 26.0009 43.4034C27.8645 46.0263 29.8158 48.4371 31.7822 50.5481C31.3643 50.9526 30.9365 51.3468 30.4992 51.7302C27.8861 54.015 25.2677 55.636 22.96 56.4513ZM13.2458 38.0913C9.96182 36.9684 7.24979 35.5092 5.39091 33.9168C3.72039 32.486 2.87724 31.0652 2.87724 29.9126C2.87724 27.4594 6.53318 24.3305 12.631 22.2039C13.371 21.946 14.1455 21.7026 14.9492 21.4742C15.7921 24.2163 16.8975 27.0834 18.2316 29.9826C16.8801 32.9247 15.7589 35.8376 14.9079 38.6121C14.3497 38.4521 13.7955 38.2785 13.2458 38.0913ZM16.5021 15.9176C15.2365 9.44732 16.077 4.56653 18.1924 3.34153C20.4453 2.0368 25.4274 3.89706 30.6786 8.56127C31.0211 8.86611 31.3579 9.17712 31.6891 9.49416C29.7324 11.596 27.799 13.9889 25.952 16.5963C22.7846 16.89 19.7526 17.3615 16.9651 17.9934C16.7934 17.3055 16.639 16.6132 16.5021 15.9176ZM45.5526 23.0934C44.8942 21.9557 44.2113 20.8324 43.5045 19.7242C45.6533 19.996 47.7122 20.3568 49.6455 20.7978C49.0651 22.6589 48.3417 24.6044 47.4901 26.5992C46.8677 25.4178 46.2217 24.249 45.5526 23.0934ZM33.7058 11.551C35.0328 12.9892 36.3618 14.5947 37.669 16.3368C35.0173 16.2115 32.361 16.211 29.7092 16.3352C31.0177 14.6092 32.3581 13.0057 33.7058 11.551ZM21.7831 23.1131C21.1223 24.2594 20.4884 25.4209 19.8818 26.5968C19.0442 24.6092 18.3273 22.6547 17.742 20.7673C19.6635 20.3373 21.7125 19.9857 23.8477 19.7189C23.133 20.8339 22.4446 21.9658 21.7831 23.1131ZM23.909 40.311C21.7031 40.0647 19.6232 39.7313 17.7022 39.3129C18.2968 37.3918 19.0295 35.3957 19.8852 33.3655C20.4942 34.5422 21.1308 35.7045 21.7944 36.8513C22.4768 38.0302 23.1834 39.185 23.909 40.311ZM33.7853 48.4768C32.4215 47.0052 31.0614 45.3771 29.7331 43.626C31.0227 43.6765 32.3373 43.7023 33.6735 43.7023C35.0462 43.7023 36.4031 43.6715 37.7388 43.6121C36.4273 45.3947 35.1033 47.0252 33.7853 48.4768ZM47.5172 33.2618C48.4174 35.3144 49.1762 37.3 49.7786 39.1881C47.8261 39.6339 45.7178 39.9929 43.4964 40.2594C44.2082 39.1306 44.8975 37.9878 45.5639 36.8315C46.2414 35.6563 46.8927 34.4661 47.5172 33.2618ZM43.0718 35.3936C42.0516 37.1664 40.9741 38.9054 39.841 40.6081C37.7884 40.7535 35.7312 40.8258 33.6735 40.8247C31.5776 40.8247 29.539 40.7594 27.5759 40.6321C26.4132 38.9333 25.3151 37.1912 24.2841 35.4094C23.2579 33.6371 22.2996 31.8264 21.4108 29.9813C22.2974 28.1357 23.253 26.3242 24.2757 24.5505L24.2754 24.5507C25.2977 22.7766 26.387 21.0419 27.541 19.3505C29.5437 19.1989 31.5976 19.12 33.6732 19.12C35.7583 19.12 37.815 19.1997 39.8173 19.3523C40.9596 21.0412 42.0419 22.7699 43.0623 24.5352C44.0884 26.305 45.0567 28.1077 45.9656 29.9405C45.066 31.792 44.1008 33.6109 43.0718 35.3936ZM49.0067 3.25574C51.2618 4.5568 52.1389 9.80338 50.722 16.6836C50.6315 17.1226 50.5299 17.5697 50.4194 18.0231C47.6251 17.3778 44.591 16.8981 41.4144 16.6C39.564 13.9639 37.6464 11.5673 35.7215 9.49259C36.226 9.00614 36.7425 8.53231 37.2705 8.07153C42.2426 3.74338 46.8895 2.03443 49.0067 3.25574ZM33.6735 23.8968C36.9948 23.8968 39.6873 26.5902 39.6873 29.9126C39.6873 33.235 36.9948 35.9284 33.6735 35.9284C30.3522 35.9284 27.6596 33.235 27.6596 29.9126C27.6596 26.5902 30.3522 23.8968 33.6735 23.8968Z" fill="#00D8FF"/>
</g>
<defs>
<clipPath id="clip0_290_1410">
<rect width="67.3469" height="60" fill="white"/>
</clipPath>
</defs>
</svg>
