<svg width="35" height="60" viewBox="0 0 35 60" fill="current" xmlns="http://www.w3.org/2000/svg">
<g clip-path="url(#clip0_290_1408)">
<path d="M23.5208 6.67845C20.4391 3.69473 17.7853 0.66424 17.2432 0.0349508C17.2303 0.0239068 17.2148 0.015114 17.1976 0.00910601C17.1805 0.003098 17.162 0 17.1433 0C17.1246 0 17.1061 0.003098 17.0889 0.00910601C17.0718 0.015114 17.0563 0.0239068 17.0434 0.0349508C16.5012 0.66435 13.8474 3.69473 10.7656 6.67845C-15.6862 34.2081 14.9319 52.7866 14.9319 52.7866L15.1886 52.9265C15.4168 55.7936 15.9876 59.9198 15.9876 59.9198H18.2704C18.2704 59.9198 18.841 55.817 19.0693 52.9266L19.3262 52.7634C19.3547 52.7868 49.9728 34.2082 23.5208 6.67845ZM17.129 52.367C17.129 52.367 15.7593 51.4113 15.3883 50.9219V50.8752L17.0434 20.8979C17.0434 20.8047 17.2147 20.8047 17.2147 20.8979L18.8696 50.8752V50.9219C18.4986 51.4113 17.129 52.3671 17.129 52.3671V52.367Z" fill="#01EC64"/>
</g>
<defs>
<clipPath id="clip0_290_1408">
<rect width="34.2857" height="60" fill="white"/>
</clipPath>
</defs>
</svg>
