<svg width="50" height="50" viewBox="0 0 50 50" fill="none" xmlns="http://www.w3.org/2000/svg">
<path d="M37.5 21.875V39.8438C37.5 40.3567 37.399 40.8647 37.2027 41.3386C37.0063 41.8125 36.7186 42.2432 36.3559 42.6059C35.9932 42.9686 35.5625 43.2563 35.0886 43.4527C34.6147 43.649 34.1067 43.75 33.5938 43.75H10.1562C9.12025 43.75 8.12668 43.3384 7.39411 42.6059C6.66155 41.8733 6.25 40.8798 6.25 39.8438V16.4062C6.25 15.3702 6.66155 14.3767 7.39411 13.6441C8.12668 12.9116 9.12025 12.5 10.1562 12.5H26.5117M32.8125 6.25H43.75V17.1875M21.875 28.125L42.9688 7.03125" stroke="#0057A7" stroke-width="2.5" stroke-linecap="round" stroke-linejoin="round"/>
</svg>
