<svg width="19" height="25" viewBox="0 0 19 25" fill="none" xmlns="http://www.w3.org/2000/svg">
<path d="M0.000235081 1.25072L0.000235081 23.7507C0.000949245 23.9785 0.0637782 24.2018 0.181958 24.3966C0.300137 24.5913 0.469191 24.7501 0.670926 24.856C0.87266 24.9618 1.09944 25.0106 1.32684 24.9971C1.55424 24.9836 1.77366 24.9084 1.96149 24.7795L18.2115 13.5295C18.8852 13.0632 18.8852 11.9407 18.2115 11.4732L1.96149 0.223217C1.77406 0.0929982 1.55452 0.0166349 1.32674 0.00242366C1.09896 -0.0117875 0.871638 0.036697 0.669476 0.14261C0.467314 0.248522 0.298043 0.407812 0.180055 0.603172C0.0620674 0.798533 -0.000124399 1.02249 0.000235081 1.25072Z" fill="#0057A7"/>
</svg>
