<svg width="25" height="20" viewBox="0 0 25 20" fill="none" xmlns="http://www.w3.org/2000/svg">
<path d="M21.1532 1.58343C19.5698 0.845316 17.8554 0.309587 16.0697 5.47613e-05C16.054 -0.000445971 16.0385 0.0024923 16.0241 0.00866304C16.0097 0.0148338 15.9968 0.0240871 15.9863 0.0357703C15.7721 0.428638 15.522 0.940557 15.3554 1.33342C13.4613 1.0477 11.535 1.0477 9.64094 1.33342C9.47427 0.928652 9.22426 0.428638 8.99806 0.0357703C8.98616 0.0119601 8.95044 5.47613e-05 8.91473 5.47613e-05C7.12896 0.309587 5.42653 0.845316 3.83125 1.58343C3.81935 1.58343 3.80744 1.59534 3.79554 1.60724C0.557354 6.45261 -0.335528 11.167 0.10496 15.8338C0.10496 15.8576 0.116865 15.8814 0.140675 15.8933C2.28359 17.4648 4.34317 18.4172 6.37894 19.0482C6.41466 19.0601 6.45037 19.0482 6.46228 19.0244C6.93848 18.3696 7.36706 17.6791 7.73612 16.9529C7.75993 16.9053 7.73612 16.8577 7.6885 16.8458C7.00991 16.5838 6.36704 16.2743 5.73607 15.9172C5.68845 15.8934 5.68845 15.8219 5.72416 15.7862C5.85512 15.691 5.98607 15.5838 6.11703 15.4886C6.14084 15.4648 6.17656 15.4648 6.20037 15.4767C10.2957 17.3458 14.7125 17.3458 18.7602 15.4767C18.784 15.4648 18.8198 15.4648 18.8436 15.4886C18.9745 15.5957 19.1055 15.691 19.2364 15.7981C19.2841 15.8338 19.2841 15.9053 19.2245 15.9291C18.6055 16.2981 17.9507 16.5957 17.2721 16.8577C17.2245 16.8696 17.2126 16.9291 17.2245 16.9648C17.6054 17.691 18.034 18.3815 18.4983 19.0363C18.534 19.0482 18.5698 19.0601 18.6055 19.0482C20.6531 18.4172 22.7127 17.4648 24.8556 15.8933C24.8794 15.8814 24.8914 15.8576 24.8914 15.8338C25.4152 10.4408 24.0223 5.76212 21.2008 1.60724C21.1889 1.59534 21.177 1.58343 21.1532 1.58343ZM8.35519 12.9885C7.12896 12.9885 6.10512 11.8575 6.10512 10.4646C6.10512 9.07173 7.10515 7.94075 8.35519 7.94075C9.61713 7.94075 10.6172 9.08364 10.6052 10.4646C10.6052 11.8575 9.60522 12.9885 8.35519 12.9885ZM16.653 12.9885C15.4268 12.9885 14.403 11.8575 14.403 10.4646C14.403 9.07173 15.403 7.94075 16.653 7.94075C17.915 7.94075 18.915 9.08364 18.9031 10.4646C18.9031 11.8575 17.915 12.9885 16.653 12.9885Z" fill="black"/>
</svg>
