<svg width="60" height="60" viewBox="0 0 60 60" fill="none" xmlns="http://www.w3.org/2000/svg">
<path d="M10 30C10 30.663 10.2634 31.2989 10.7322 31.7678C11.2011 32.2366 11.837 32.5 12.5 32.5C13.163 32.5 13.7989 32.2366 14.2678 31.7678C14.7366 31.2989 15 30.663 15 30C15 29.337 14.7366 28.7011 14.2678 28.2322C13.7989 27.7634 13.163 27.5 12.5 27.5C11.837 27.5 11.2011 27.7634 10.7322 28.2322C10.2634 28.7011 10 29.337 10 30ZM27.5 30C27.5 30.663 27.7634 31.2989 28.2322 31.7678C28.7011 32.2366 29.337 32.5 30 32.5C30.663 32.5 31.2989 32.2366 31.7678 31.7678C32.2366 31.2989 32.5 30.663 32.5 30C32.5 29.337 32.2366 28.7011 31.7678 28.2322C31.2989 27.7634 30.663 27.5 30 27.5C29.337 27.5 28.7011 27.7634 28.2322 28.2322C27.7634 28.7011 27.5 29.337 27.5 30ZM45 30C45 30.663 45.2634 31.2989 45.7322 31.7678C46.2011 32.2366 46.837 32.5 47.5 32.5C48.163 32.5 48.7989 32.2366 49.2678 31.7678C49.7366 31.2989 50 30.663 50 30C50 29.337 49.7366 28.7011 49.2678 28.2322C48.7989 27.7634 48.163 27.5 47.5 27.5C46.837 27.5 46.2011 27.7634 45.7322 28.2322C45.2634 28.7011 45 29.337 45 30Z" stroke="#0057A7" stroke-width="5" stroke-linecap="round" stroke-linejoin="round"/>
</svg>
