<svg width="50" height="50" viewBox="0 0 50 50" fill="none" xmlns="http://www.w3.org/2000/svg">
<rect x="1" y="1" width="48" height="48" rx="24" stroke="#0057A7" stroke-width="2"/>
<path d="M18.2004 17.5667C16.867 17 16.3004 15.35 17.1004 14.15C18.717 11.75 21.417 10 24.9837 10C28.9004 10 31.5837 11.7833 32.9504 14.0167C34.117 15.9333 34.8004 19.5167 33.0004 22.1833C31.0004 25.1333 29.0837 26.0333 28.0504 27.9333C27.8004 28.3833 27.6504 28.75 27.5504 29.5C27.4004 30.7167 26.4004 31.6667 25.167 31.6667C23.717 31.6667 22.5337 30.4167 22.7004 28.9667C22.8004 28.1167 23.0004 27.2333 23.467 26.4C24.7504 24.0833 27.217 22.7167 28.6504 20.6667C30.167 18.5167 29.317 14.5 25.017 14.5C23.067 14.5 21.8004 15.5167 21.017 16.7333C20.4337 17.6833 19.217 17.9833 18.2004 17.5667ZM28.3337 38.3333C28.3337 40.1667 26.8337 41.6667 25.0004 41.6667C23.167 41.6667 21.667 40.1667 21.667 38.3333C21.667 36.5 23.167 35 25.0004 35C26.8337 35 28.3337 36.5 28.3337 38.3333Z" fill="#0057A7"/>
</svg>
