<svg width="25" height="25" viewBox="0 0 25 25" fill="none" xmlns="http://www.w3.org/2000/svg">
<path d="M19.875 11.125C15.875 8.75 9.1875 8.5 5.375 9.6875C4.75 9.875 4.125 9.5 3.9375 8.9375C3.75 8.3125 4.125 7.6875 4.6875 7.5C9.125 6.1875 16.4375 6.4375 21.0625 9.1875C21.625 9.5 21.8125 10.25 21.5 10.8125C21.1875 11.25 20.4375 11.4375 19.875 11.125ZM19.75 14.625C19.4375 15.0625 18.875 15.25 18.4375 14.9375C15.0625 12.875 9.9375 12.25 6 13.5C5.5 13.625 4.9375 13.375 4.8125 12.875C4.6875 12.375 4.9375 11.8125 5.4375 11.6875C10 10.3125 15.625 11 19.5 13.375C19.875 13.5625 20.0625 14.1875 19.75 14.625ZM18.25 18.0625C18 18.4375 17.5625 18.5625 17.1875 18.3125C14.25 16.5 10.5625 16.125 6.1875 17.125C5.75 17.25 5.375 16.9375 5.25 16.5625C5.125 16.125 5.4375 15.75 5.8125 15.625C10.5625 14.5625 14.6875 15 17.9375 17C18.375 17.1875 18.4375 17.6875 18.25 18.0625ZM12.5 0C10.8585 0 9.23303 0.323322 7.71646 0.951506C6.19989 1.57969 4.8219 2.50043 3.66117 3.66117C1.31696 6.00537 0 9.18479 0 12.5C0 15.8152 1.31696 18.9946 3.66117 21.3388C4.8219 22.4996 6.19989 23.4203 7.71646 24.0485C9.23303 24.6767 10.8585 25 12.5 25C15.8152 25 18.9946 23.683 21.3388 21.3388C23.683 18.9946 25 15.8152 25 12.5C25 10.8585 24.6767 9.23303 24.0485 7.71646C23.4203 6.19989 22.4996 4.8219 21.3388 3.66117C20.1781 2.50043 18.8001 1.57969 17.2835 0.951506C15.767 0.323322 14.1415 0 12.5 0Z" fill="black"/>
</svg>
