<svg width="60" height="60" viewBox="0 0 60 60" fill="none" xmlns="http://www.w3.org/2000/svg">
<path d="M11.0667 51.0019L6.85547 3.75H53.1455L48.9286 50.9944L29.9723 56.25L11.0667 51.0019Z" fill="#1572B6"/>
<path d="M30 52.2336L45.3188 47.9868L48.9225 7.61426H30V52.2336Z" fill="#33A9DC"/>
<path d="M30 24.7329H37.6688L38.1975 18.7986H30V13.0029H44.5312L44.3925 14.5573L42.9694 30.5286H30V24.7329Z" fill="white"/>
<path d="M30.0358 39.7839L30.0096 39.7914L23.5558 38.0477L23.1433 33.4258H17.3252L18.1371 42.5252L30.0077 45.8214L30.0358 45.8139V39.7839Z" fill="#EBEBEB"/>
<path d="M37.1753 30.2832L36.4778 38.0438L30.0146 39.7876V45.8176L41.8946 42.5251L41.9828 41.5463L42.9896 30.2832H37.1753Z" fill="white"/>
<path d="M30.0211 13.0029V18.7986H16.0223L15.9061 17.4954L15.6417 14.5573L15.5029 13.0029H30.0211ZM30.0004 24.7329V30.5286H23.6273L23.5111 29.2254L23.2486 26.2873L23.1098 24.7329H30.0004Z" fill="#EBEBEB"/>
</svg>
