<svg width="60" height="60" viewBox="0 0 60 60" fill="none" xmlns="http://www.w3.org/2000/svg">
<path d="M10.875 46.125L11.1937 45.6806L26.2312 17.1543L26.2631 16.8524L19.635 4.40245C19.5137 4.17478 19.3238 3.99103 19.0923 3.87719C18.8608 3.76336 18.5993 3.7252 18.3449 3.76812C18.0905 3.81103 17.8561 3.93285 17.6747 4.11634C17.4934 4.29983 17.3743 4.5357 17.3344 4.79057L10.875 46.125Z" fill="#FFC24A"/>
<path d="M11.0625 45.7878L11.3025 45.3191L26.1844 17.0891L19.5731 4.59034C19.4641 4.37298 19.2876 4.19679 19.07 4.08818C18.8524 3.97957 18.6055 3.94437 18.3663 3.98787C18.127 4.03137 17.9083 4.15123 17.7429 4.32947C17.5775 4.50772 17.4743 4.73476 17.4487 4.97659L11.0625 45.7878Z" fill="#FFA712"/>
<path d="M31.0955 26.2684L36.0305 21.2059L31.0936 11.7915C30.9849 11.5889 30.8234 11.4196 30.6261 11.3015C30.4288 11.1834 30.2032 11.1211 29.9733 11.1211C29.7434 11.1211 29.5178 11.1834 29.3205 11.3015C29.1232 11.4196 28.9616 11.5889 28.853 11.7915L26.2148 16.8203V17.2497L31.0955 26.2684Z" fill="#F4BD62"/>
<path d="M31.0064 26.0625L35.8046 21.15L31.0064 12C30.9279 11.802 30.7938 11.6309 30.6202 11.5073C30.4466 11.3838 30.241 11.3131 30.0281 11.3038C29.8153 11.2945 29.6042 11.3469 29.4205 11.4548C29.2368 11.5627 29.0882 11.7215 28.9927 11.9119L26.3414 17.0288L26.2627 17.2894L31.0064 26.0625Z" fill="#FFA50E"/>
<path d="M10.8789 46.1273L11.0233 45.9811L11.5464 45.7692L30.7839 26.603L31.0277 25.9392L26.2295 16.793L10.8789 46.1273Z" fill="#F6820C"/>
<path d="M31.71 55.7926L49.125 46.082L44.1487 15.4614C44.1131 15.2455 44.0186 15.0436 43.8757 14.8779C43.7329 14.7123 43.5471 14.5891 43.3388 14.5221C43.1306 14.4551 42.9079 14.4467 42.6952 14.498C42.4825 14.5492 42.288 14.6581 42.1331 14.8126L10.875 46.1251L28.1869 55.7907C28.7251 56.0911 29.3312 56.2487 29.9475 56.2487C30.5638 56.2487 31.1699 56.0911 31.7081 55.7907" fill="#FDE068"/>
<path d="M48.9656 46.0017L44.0306 15.6117C44.0219 15.4052 43.9521 15.206 43.8302 15.0392C43.7082 14.8724 43.5394 14.7455 43.3453 14.6747C43.1512 14.6038 42.9404 14.5921 42.7397 14.6411C42.5389 14.6901 42.3572 14.7975 42.2175 14.9498L11.0625 46.0673L28.1831 55.6298C28.7171 55.9277 29.3183 56.084 29.9297 56.084C30.5411 56.084 31.1423 55.9277 31.6762 55.6298L48.9656 46.0017Z" fill="#FCCA3F"/>
<path d="M31.71 55.5C31.1718 55.8003 30.5657 55.958 29.9494 55.958C29.333 55.958 28.727 55.8003 28.1888 55.5L11.0175 45.9787L10.875 46.125L28.1869 55.7906C28.7251 56.0909 29.3312 56.2486 29.9475 56.2486C30.5638 56.2486 31.1699 56.0909 31.7081 55.7906L49.125 46.0818L49.0819 45.8193L31.71 55.5Z" fill="#EEAB37"/>
</svg>
