<svg width="60" height="60" viewBox="0 0 60 60" fill="none" xmlns="http://www.w3.org/2000/svg">
<g clip-path="url(#clip0_516_69)">
<path d="M9.41535 26.2061C7.38484 27.0293 2.01138 30.7352 0.976438 31.8332C-0.0983468 32.9311 -0.416845 31.2156 0.697547 28.3677C1.57312 26.0687 3.80261 22.9463 7.5442 20.2701C9.73315 18.7261 14.5498 16.4958 17.4952 15.1919C18.0924 14.9172 25.8146 12.1039 32.7009 10.697C33.298 10.5596 31.9844 11.5548 31.7852 12.1039C30.7503 14.7115 10.0915 25.8972 10.0915 25.8972L9.41535 26.2061ZM38.5124 57.6699C38.8705 59.5229 38.5522 59.66 36.3234 59.9002C34.0942 60.1406 32.4621 59.4198 31.8651 58.9396C31.2677 58.4588 31.1487 57.3956 31.7456 56.4348C32.1042 55.8172 32.4623 55.6113 32.6615 54.8564C32.8602 54.136 33.0196 53.9643 33.1787 53.6899C33.3379 53.4495 33.3779 53.2091 33.4176 51.5281C33.4574 49.8469 33.4176 46.6901 33.6168 45.3521C33.816 43.9796 40.702 45.9695 40.702 45.9695C40.702 45.9695 39.0699 49.4693 38.6321 50.3271C38.1943 51.1851 38.2342 52.8319 38.2342 53.175C38.2342 53.5182 38.0748 54.2043 37.9553 54.2386C37.836 54.273 38.3537 55.1651 38.1146 55.6798C37.9553 56.1602 38.4727 57.3956 38.5124 57.6699ZM41.1396 5.20709C40.9005 3.90325 41.1396 1.32952 41.4581 0.918204C42.4532 -0.248664 47.7073 -0.385836 48.8219 0.986689C49.2996 1.60426 49.2597 3.04527 49.1803 3.97174C49.1006 4.8982 48.8219 6.88831 48.7821 7.54043C48.7425 8.02083 42.9706 8.77538 41.6969 7.47174C41.3385 7.12871 41.1396 5.20709 41.1396 5.20709ZM52.8422 54.3414C55.2704 55.8515 57.1411 56.1259 58.375 56.6748C59.6089 57.2241 59.2907 58.2877 57.2208 58.5964C55.5488 58.8709 52.9219 58.3218 51.1705 58.3218C49.4191 58.3218 45.5181 58.4936 44.4832 57.876C43.2891 57.1554 43.8064 55.8172 43.8064 55.8172C44.1251 55.0625 44.9208 53.3808 44.6819 52.0085C44.4431 50.6362 44.1246 49.8812 43.5277 48.6117C42.9305 47.3422 42.493 44.2198 43.0503 44.0481C43.6076 43.8764 43.4483 44.0481 44.1647 44.1855C44.8811 44.3224 45.6773 44.5285 47.2297 44.5285C48.7821 44.5285 50.4936 44.3224 51.0908 44.2196C51.688 44.1168 52.1656 44.0136 51.9664 45.0774C51.7674 46.141 51.1705 48.1311 51.1306 49.6754C51.0908 51.2194 51.0908 53.0037 51.2103 53.3123C51.3296 53.6212 52.2054 53.9643 52.8422 54.3416V54.3414Z" fill="black"/>
<path d="M44.3252 8.63776C39.9468 11.8976 31.4681 12.7893 18.8899 16.9755C15.6657 18.0392 7.06793 21.2301 4.99805 24.5586C11.9638 21.0931 14.5511 25.8624 15.1084 30.7689C15.6257 35.3666 18.2927 37.7687 25.1391 37.6311C32.1848 37.4941 34.3341 41.0281 36.2845 45.18C40.0659 29.2933 46.1164 26.2054 50.0171 23.4949C58.2967 17.6959 48.1066 7.47109 44.3252 8.63776Z" fill="#88CE02"/>
<path d="M44.3252 8.6381C33.8166 11.7947 23.4276 12.5838 11.2074 19.0686C8.30183 20.6126 2.17185 24.1124 0.977539 30.8034C5.43558 26.5486 15.7449 21.1961 28.3632 17.7993C34.732 16.0836 39.3893 14.9514 45.0416 13.064C44.6437 10.868 44.6437 10.0102 44.3252 8.6377V8.6381Z" fill="#88CE02"/>
<path d="M57.739 27.4415C57.739 27.4415 56.9828 29.6718 55.4702 30.3926C55.4702 30.3926 54.3558 30.7356 52.1268 29.672C51.4898 29.3633 51.0122 28.2997 51.0518 27.9562C51.0916 27.1328 51.6888 26.7554 51.6888 26.7554C51.6888 26.7554 52.3258 25.829 53.0818 25.8633C53.8383 25.8977 55.1121 26.0005 55.5103 25.6916C55.8681 25.3486 57.8187 26.3092 57.739 27.4415ZM41.4987 5.85948C41.4987 5.85948 41.3396 7.60938 41.0609 8.70736C41.0211 8.91342 39.827 9.01604 38.9512 9.32493C40.6229 13.4423 50.6937 13.408 52.0075 11.3835C51.3705 11.0063 50.0967 10.4229 49.4998 10.2171C48.9024 10.011 48.9423 10.0453 48.9024 9.08473C48.8626 8.12392 48.7829 6.33988 48.7032 5.85948C48.6235 5.37887 42.454 5.37887 41.4987 5.85948Z" fill="black"/>
<path d="M41.8964 5.85889C41.8964 5.85889 41.8964 6.85384 41.7769 7.81445C41.7376 8.26071 41.6977 8.53505 41.618 8.87808C41.5782 9.08414 42.9715 9.90738 43.3694 11.726C45.2802 15.3973 49.6986 13.5789 51.5294 11.829C50.8927 11.4514 49.8577 10.9369 48.6637 10.5252C48.0665 10.3191 48.3449 9.87324 48.3053 8.91263C48.2655 7.95182 48.1061 6.54495 48.0267 6.03021C47.947 5.51566 42.8519 5.37829 41.8964 5.85889Z" fill="#EFEFEF"/>
<path d="M41.499 5.85948C41.499 5.85948 41.4591 6.47705 41.3398 7.19766C41.8571 7.64352 42.5339 8.2613 43.0516 8.63867C43.4097 8.91342 44.2853 8.87907 45.0817 8.87907C45.7981 8.87907 46.4349 8.94756 46.7135 8.81039C47.3508 8.53564 48.2659 7.84958 48.7834 7.33483C48.7438 6.71726 48.704 6.13402 48.6644 5.85948C48.6241 5.37887 42.4542 5.37887 41.499 5.85948Z" fill="black"/>
<path d="M45.1209 8.46672C44.643 8.46672 44.0857 8.43238 43.6479 8.36369C43.4487 8.32935 43.2499 8.22652 43.0906 8.15783C42.8119 7.98611 42.5333 7.78046 42.2152 7.5744C41.578 7.16268 41.5384 6.92248 41.5384 6.81985C41.8171 4.65803 41.4587 2.83965 41.4587 2.83965C41.4587 2.83965 41.1798 1.91298 42.6926 1.67278C44.2052 1.43258 45.1206 1.39844 45.1206 1.39844C45.1206 1.39844 46.0761 1.39844 47.5486 1.67278C49.0614 1.91318 48.7828 2.83965 48.7828 2.83965C48.7828 2.83965 48.4244 4.65803 48.7031 6.81985C48.7031 6.92248 48.6635 7.16268 48.0265 7.5744C47.4692 7.91763 47.0314 8.295 46.5936 8.36369C46.1556 8.43238 45.5983 8.46672 45.1209 8.46672Z" fill="black"/>
<path d="M45.1207 0.505859C42.4935 0.505859 41.976 1.12344 41.2197 1.8097C41.0606 1.98121 41.1799 3.01051 41.4588 5.20667H41.8169C41.8169 5.20667 41.5778 4.58889 41.6177 3.86828C41.6575 3.14788 41.8169 3.18222 41.6973 3.01051C41.538 2.80445 41.2197 2.46141 41.9364 2.11838C42.6526 1.77535 43.7672 2.39293 45.1207 2.42727C46.4739 2.39293 47.6283 1.77535 48.3448 2.11838C49.0612 2.46141 48.7427 2.80465 48.5838 3.01051C48.4245 3.21657 48.6234 3.14788 48.6633 3.86828C48.7031 4.58889 48.4641 5.20667 48.4641 5.20667H48.8224C49.0612 3.01071 49.2204 2.0499 49.1011 1.87818C48.4242 1.12344 47.7476 0.540001 45.1207 0.505859ZM57.7387 27.5436C57.7387 27.5436 56.9824 29.6366 55.5099 30.3572C55.1912 30.2198 55.2311 30.0141 54.9522 29.7053C54.8725 29.6024 54.5941 29.5335 54.4748 29.4307C54.3552 29.3277 54.3951 29.1562 54.1959 29.019C54.0367 28.8816 53.9175 28.9846 53.7581 28.8816C53.5992 28.7446 53.5589 28.5729 53.4398 28.4703C53.3601 28.4016 53.0416 28.3673 52.9622 28.2986C52.763 28.1269 51.0118 27.8182 51.0915 27.475C51.2504 26.9602 51.5691 26.5828 51.5691 26.5828C51.5691 26.5828 52.3254 25.6222 53.0815 25.6564C53.8378 25.6907 54.5542 25.8281 54.9524 25.5192C55.3904 25.176 57.8585 26.4457 57.7387 27.5434V27.5436Z" fill="black"/>
<path d="M52.5642 12.378C52.5642 12.378 55.0719 11.8633 56.7834 13.2702C58.4952 14.7114 58.3754 16.4954 57.8582 17.5934C58.296 18.0395 59.0921 19.2746 58.4952 20.7502C61.1224 22.6714 59.9679 25.6225 57.6194 27.5782C57.6194 27.5782 57.0621 25.794 54.833 25.691C54.9127 25.0049 52.7632 24.4558 53.7583 22.6716C52.2457 22.3627 52.2855 21.4706 52.0467 20.3726C51.8475 19.2746 52.5642 12.378 52.5642 12.378Z" fill="black"/>
<path d="M51.649 13.3389C51.649 13.3389 54.5546 12.0694 56.2664 13.5106C57.9779 14.9516 57.5001 16.5298 56.9828 17.6277C57.4206 18.0736 58.4556 19.3435 57.8186 20.853C57.699 21.1962 56.8235 21.1962 56.1865 22.0883C57.7785 21.2989 58.7738 21.5049 59.1322 22.4999C59.6895 24.0439 58.4553 25.8966 57.3808 26.9261C57.3808 26.8918 57.3409 26.8574 57.3409 26.8231C57.1816 27.338 56.9826 28.3328 55.7885 29.4308C55.1914 29.9799 54.7137 29.9114 54.0371 29.774C53.241 29.6023 52.9623 29.2934 51.848 28.7791C51.211 28.4702 51.5691 28.0926 51.5691 27.7839C51.5691 27.7152 51.6487 27.6122 51.7683 27.4752C51.848 27.3035 52.0868 27.0292 52.4449 26.7203C52.4449 26.7203 52.9623 26.1027 53.7189 26.1368C54.4752 26.1712 55.271 26.0342 55.4703 25.8625C55.4703 24.6617 53.8782 24.6271 54.4353 22.5685C54.4752 22.4655 54.6744 22.2938 55.3109 22.2253C54.3556 22.0536 53.9178 22.0193 53.241 21.4706C52.7634 21.0932 52.4053 20.6128 52.2857 19.9952C52.0469 18.9316 51.649 13.3389 51.649 13.3389Z" fill="#EFEFEF"/>
<path d="M43.2502 11.1772C43.0112 10.9025 41.7775 9.53017 39.4289 8.98128C38.7521 8.80957 38.3143 9.28997 37.6379 9.6332C37.4387 9.53017 36.5629 9.18714 36.0853 9.42714C35.6077 9.66714 35.2894 9.90755 34.8115 10.0791C34.5725 9.97603 33.936 9.97603 33.4185 10.1477C32.901 10.2849 32.1049 10.5936 31.3486 11.4857C30.871 12.9613 39.787 11.8631 39.787 11.8631L43.2502 11.1772Z" fill="black"/>
<path d="M43.3297 11.1774C42.0557 10.7998 42.2549 9.53031 39.4287 9.32446C38.8714 9.29011 38.5131 9.66749 38.1152 9.90769C38.3144 10.0794 38.5131 10.3537 38.6326 10.6281C38.2743 10.2853 37.6375 9.839 37.0003 9.73597C36.4034 9.63335 36.0052 10.0107 35.3684 10.2853C35.4877 10.3879 35.6072 10.5596 35.7664 10.7657C35.2088 10.4568 34.8111 10.354 34.0548 10.594C33.5374 10.7311 32.5422 11.1087 31.786 12.0352C31.3083 13.5105 39.8265 11.8634 39.8265 11.8634L43.3297 11.1774Z" fill="#88CE02"/>
<path d="M50.813 11.7265C50.813 11.7265 50.813 11.3491 50.7732 11.0061C50.7732 10.9374 50.4547 10.7657 50.4547 10.6972L50.375 10.6285C50.375 10.6285 51.012 10.3198 51.4896 10.4913C52.0069 10.6287 52.2855 11.2119 52.2855 11.2119C53.2012 10.9376 53.2806 11.2463 53.7186 11.658C54.6741 11.4863 54.7932 11.7952 55.3906 12.5501C55.3906 12.5501 54.6741 12.4471 53.2809 12.653C51.9274 12.8243 50.813 11.6921 50.813 11.7265Z" fill="black"/>
<path d="M50.6535 11.5548C50.6535 11.5548 50.8923 11.3831 50.8126 11.3487C51.2504 11.1427 51.8475 10.9029 52.1262 11.5548C53.0416 11.28 53.1611 11.6578 53.5989 12.0695C54.7133 11.6235 54.7928 12.1722 54.8727 12.4126C54.5143 12.4126 53.9971 12.4469 53.2804 12.5154C51.9272 12.6871 50.6136 11.5202 50.6535 11.5548Z" fill="#88CE02"/>
<path d="M37.1197 10.6973C37.1197 10.6973 39.3886 11.3833 41.2993 11.2803C43.2101 11.1433 46.474 11.006 48.2252 11.8981C48.2252 11.8981 50.0164 11.349 51.6883 11.7264C53.3603 12.1037 56.4253 14.5742 55.5099 17.1819C55.4302 17.3536 54.9127 17.628 54.3155 17.7997C54.3155 17.7997 54.6343 18.9664 54.0767 19.927C53.5194 20.8534 52.2855 22.6377 52.2457 25.1082C52.2058 25.5199 52.1264 26.3777 52.0467 26.7892C48.9419 26.6866 44.1653 25.6912 39.4685 25.7601C39.5081 25.314 39.5479 25.0395 39.588 24.5934H39.707C39.468 23.4611 39.3886 22.8777 39.1497 22.0201C37.6372 21.1967 36.0447 20.2359 34.6917 18.4173C33.3781 16.5987 37.1197 10.6973 37.1197 10.6973ZM52.4845 29.2255C52.4845 29.2255 54.9523 36.8429 52.0467 40.034C52.0467 40.034 52.4845 41.5094 51.4894 43.0878C51.33 43.7738 51.1308 44.3916 51.0117 45.0777C50.4943 47.9256 49.6185 49.1264 49.3796 53.6898L46.9913 53.6557C46.9913 53.6557 46.7124 50.3617 45.8766 48.6118C45.3992 47.6169 43.5281 46.2785 43.608 44.9405C43.6877 43.9112 43.9263 43.0534 45.9565 41.6807C46.1157 39.6908 43.807 37.8035 44.1653 30.3922L52.4845 29.2255Z" fill="black"/>
<path d="M51.7685 28.9167C52.4055 32.4165 53.8783 37.5975 51.2112 40.1367C51.3305 40.6171 51.4102 41.3033 51.2511 42.0922C51.1714 42.5039 51.012 42.95 50.8133 43.4304C50.4151 44.2538 50.2557 45.4546 50.1364 46.1752C49.619 49.0231 49.619 49.1607 49.3801 53.7241L46.9918 53.6898C46.9918 53.6898 46.7129 50.3959 45.8771 48.646C45.3997 47.651 44.4044 46.7932 44.3249 45.455C44.2453 44.4258 45.0812 42.3672 47.0717 42.4356C46.9521 38.2839 44.7229 39.1074 44.126 30.4607L51.7685 28.9167ZM37.1202 10.6973C37.1202 10.6973 37.996 10.9375 38.9513 11.006C39.9065 11.0746 40.9417 11.006 41.8569 10.9716C43.7676 10.8344 46.4743 10.6629 48.2655 11.555C48.2655 11.555 49.2606 11.2803 50.3356 11.349C50.8133 11.3833 51.2909 11.7264 51.8482 11.8637C53.5996 12.2411 55.2713 14.7457 54.5148 17.0106C54.4351 17.1823 53.878 17.0106 53.241 17.1823C53.3603 17.6625 53.4402 18.7605 52.8032 19.9272C52.1266 21.0938 51.2508 22.6035 51.4099 25.4858C47.2306 25.314 45.3597 25.074 41.2199 24.9025C40.8615 23.6328 40.6227 22.3631 40.5829 21.7114C41.1404 21.471 41.4585 21.2655 41.8967 20.8536C40.7026 21.0253 40.2248 20.9567 39.5081 20.6132C38.7917 20.2702 37.5179 19.1722 36.8809 18.4518C36.8015 18.3831 36.3639 19.5152 35.3688 19.5498C35.0102 19.1037 36.5228 17.834 36.2441 17.3538C35.2493 15.6037 37.1202 10.6973 37.1202 10.6973Z" fill="#EFEFEF"/>
<path d="M52.0865 26.0687C52.0865 26.0687 52.1661 27.3038 52.1661 27.6125C52.1661 27.9557 52.4849 28.9848 52.5245 29.4654C52.0867 30.1173 50.1762 31.5927 46.713 32.1418C43.2897 32.7594 38.752 28.1272 38.752 28.1272C38.8715 27.6812 39.2694 26.3773 39.5481 25.6911C39.5879 25.6224 39.6676 25.4509 39.6676 25.3824C40.0259 24.9363 52.0865 26.0687 52.0865 26.0687Z" fill="black"/>
<path d="M51.2112 26.1721C51.2112 27.0297 51.3703 27.6475 51.4901 28.1964C51.6888 29.1915 52.0071 29.8434 52.0071 30.4954C52.0071 32.4853 48.9819 32.1422 46.4342 32.2109C43.0111 32.8287 40.1055 28.1966 40.1055 28.1966C40.344 27.4073 40.5034 26.5154 40.8615 25.7602C40.9014 25.3487 40.981 24.834 41.0209 24.5938C45.8769 24.5938 49.3002 24.8342 51.2906 25.0053C51.3703 25.3828 51.2906 26.0348 51.2112 26.1719V26.1721Z" fill="#EFEFEF"/>
<path d="M47.3896 30.5977C47.3896 30.5977 45.2799 26.5489 38.9507 27.7501C37.4384 31.4212 35.4081 35.6418 36.7219 40.2052C35.4081 41.7493 33.8955 42.6072 33.8955 45.4549C33.8955 48.3028 34.0549 48.7832 34.0549 48.7832L38.7119 48.9893C38.7119 48.9893 40.2245 47.3081 40.8214 45.4895C40.9807 44.9745 41.1401 44.0483 41.0206 42.9846C41.1797 42.7788 41.8563 42.2986 41.9362 41.3721C41.9362 41.3721 44.2049 40.3428 45.5187 37.838C46.7529 35.5729 46.4341 33.6171 47.3894 30.5975L47.3896 30.5977Z" fill="black"/>
<path d="M47.3901 30.5979C47.2705 30.2205 45.6783 26.5149 39.7874 27.6127C36.3242 35.5731 37.5979 38.8672 38.1154 40.308C35.7666 42.8813 34.6921 43.4304 35.17 48.6458H38.2748C39.7077 46.6902 40.0262 45.9694 40.1056 43.3961C40.1056 43.2931 39.6681 43.6022 39.3493 43.9452C39.5884 42.8815 40.265 42.6757 40.7825 42.0238C41.0213 41.749 41.2202 41.3375 41.2202 40.7884C44.0066 39.1759 45.0415 37.1514 45.6384 35.0583C46.1163 33.6173 46.6734 31.2498 47.3898 30.5977L47.3901 30.5979Z" fill="#EFEFEF"/>
<path d="M37.5573 25.0732C37.5573 25.0732 38.6321 25.1076 39.5876 25.3821C40.5032 25.6565 40.5032 25.828 40.8613 26.1712C41.2197 26.5147 42.0952 27.029 41.9361 27.5437C41.8564 27.8183 41.6575 27.8868 41.3788 28.127C41.2593 28.23 40.3835 29.0534 40.1847 29.1563C40.0652 29.225 39.9058 29.328 39.7865 29.3967L39.1896 29.7397C38.7914 29.9114 38.5128 30.0143 38.075 29.9799C38.075 29.9799 37.0799 29.9456 36.4429 29.3623C36.4429 29.3623 36.3632 29.0876 36.5226 28.9506C36.5226 28.9506 35.6866 28.3328 35.4478 27.9211C35.2087 27.5096 35.2087 26.9264 35.3681 26.6175C35.4478 26.3084 37 25.4506 37.5573 25.0732ZM38.5526 58.4587L38.4331 59.3167C38.4331 59.3167 38.075 59.694 35.4082 59.6597C32.7013 59.6254 31.9849 58.905 31.746 58.5274L31.5869 57.6353C31.5869 57.6353 32.1044 56.9833 32.2239 56.9833C33.0995 57.052 36.085 58.0813 38.1549 58.3559C38.3534 58.3559 38.3933 58.4242 38.5526 58.4587ZM44.3243 56.7088C44.3243 57.0862 44.2844 57.0862 44.2844 57.4637C44.7621 57.7724 45.9564 57.9441 48.225 57.9096C51.5288 57.8409 54.5938 58.7676 58.3354 58.2183L58.3752 57.6007L58.0171 57.5666L44.7621 56.6401L44.3243 56.7088Z" fill="black"/>
<path d="M47.2298 57.9102H48.2249C50.3747 57.8415 52.4048 58.2532 54.5937 58.3563C55.7482 58.3219 57.1811 58.0815 57.0618 57.3611L45.7573 56.5375C45.0805 57.1894 45.598 57.7385 47.2298 57.9102ZM34.2534 43.4648C34.6118 43.6708 37.04 44.906 40.9806 44.7343C40.9009 45.3862 40.9407 46.6559 39.1893 48.886C38.3135 49.984 37.557 51.9056 37.3981 54.3417C37.4379 54.8908 37.796 55.371 37.3184 56.0916C37.4778 56.5375 38.1145 57.4298 38.433 57.9787C38.7513 58.5278 38.9107 59.1454 36.8007 59.1797C34.6514 59.2141 31.1882 59.008 31.6661 57.5672C31.9051 56.8122 32.5817 56.0231 32.6614 55.7143C32.7411 55.4054 32.7411 54.4791 33.4175 53.8613C34.0146 52.1458 33.8156 50.4989 33.6963 48.9549C33.4971 47.3419 33.4573 44.7688 34.2534 43.465V43.4648ZM37.9554 15.5007C40.7816 12.2409 38.3932 9.63345 33.8557 10.4223C32.0244 10.7312 30.1936 11.8294 30.074 13.8193C29.4769 13.888 28.1237 13.9565 27.4468 16.084C26.9296 17.7308 26.651 18.0395 25.7353 18.8629C25.1381 19.4464 25.7751 20.6472 26.2129 21.5054C27.6857 24.4561 32.2234 24.7304 35.2884 26.9607C36.3233 26.7205 37.3981 25.7256 37.7164 25.0738C35.129 22.4314 35.6863 21.4023 34.6514 20.0298C35.766 19.6864 38.3135 18.3488 37.9554 15.5007Z" fill="black"/>
<path d="M37.3984 15.2948C37.5573 15.0887 37.8361 14.6429 37.9557 14.4711C37.9955 14.4368 38.4333 15.0887 38.4731 15.0546C39.5477 13.5447 39.8263 11.3487 38.5924 11.1429C38.3135 11.1085 37.7963 11.0057 37.3585 10.8681C36.5624 10.6281 35.8459 10.6281 34.5719 10.834C32.8208 11.1085 31.0694 12.2065 31.0694 13.7849C31.0694 13.8879 32.3031 14.1966 32.6614 15.4663C32.0643 14.7455 31.0293 13.9564 29.7952 14.6427C28.4818 15.3631 29.1584 17.0101 27.407 18.7255C26.8099 19.3089 26.8896 19.9952 27.5266 21.3677C28.5613 23.5293 33.4573 24.696 36.1244 26.7546C36.7611 26.5144 37.1989 25.9655 37.5174 25.5538C35.7262 23.941 35.0097 22.4313 34.4923 21.3334C33.8555 20.0639 33.1388 19.3435 31.7455 18.3822C32.4622 18.6227 33.0198 18.8627 33.3378 19.0685C33.6959 19.2746 34.2134 19.3089 34.6912 19.1715C36.4033 18.6572 37.3187 16.5984 37.3981 15.2948H37.3984Z" fill="#EFEFEF"/>
<path d="M54.714 15.8432C54.5945 17.1471 53.4801 16.4951 52.8831 16.2549C51.6888 15.8089 50.4945 15.5002 49.1015 15.5002C47.7082 15.5002 45.917 15.6032 44.3648 15.9463C42.2155 16.4608 41.5782 16.4267 40.623 16.0147C39.6679 15.5687 37.9962 14.4707 37.9962 14.4707C37.9962 14.4707 37.9564 14.8139 38.3543 15.26C38.8716 15.8089 40.0263 16.4951 41.5785 16.941C42.3347 17.1471 42.9319 17.0097 43.6087 16.8725C47.1514 16.1178 50.8927 15.9804 54.0374 17.6273C54.1967 17.696 54.7541 17.4899 54.9929 17.1812C55.3109 16.7353 54.714 15.8432 54.714 15.8432Z" fill="black"/>
<path d="M36.6025 28.916C36.921 29.0877 37.319 29.1908 37.7568 29.4995C37.7568 29.4995 37.3987 29.4994 37.2395 29.3623C37.0403 29.2592 36.6424 28.9506 36.6025 28.916Z" fill="#001423"/>
<path d="M48.1058 1.70739C47.9862 1.3987 47.1104 0.849609 45.0806 0.849609C42.8912 0.849609 42.2542 1.43284 42.2148 1.74173C42.2148 1.84476 42.0555 2.94274 42.0156 3.3886C42.0156 3.3886 42.0156 3.93769 42.0555 4.76112C42.0953 5.31001 42.2544 5.6189 42.3339 6.33951C42.4136 7.09405 42.6526 7.57466 43.0902 8.19224C43.2894 8.29506 43.4485 8.3983 43.6475 8.43264C44.4436 8.56961 45.8369 8.60395 46.5932 8.43264C47.031 8.32961 47.5883 7.67769 47.7076 7.09426C47.8669 6.37385 48.0261 5.8591 48.0659 5.41304C48.1456 4.96718 48.1854 3.97203 48.2251 3.69749C48.3446 2.94274 48.1454 1.77607 48.1055 1.70759L48.1058 1.70739Z" fill="#EFEFEF"/>
<path d="M43.9265 44.1172C43.9265 44.1172 46.0365 44.9063 51.2508 44.22C51.2508 44.22 49.7781 50.602 50.4549 53.7929C50.4549 53.7929 51.1315 54.6166 56.1469 56.1948C56.1469 56.1948 58.3759 56.6752 58.2964 57.636C58.2964 57.636 58.3761 57.842 55.6692 57.7731C52.9628 57.7045 50.4148 57.2927 48.6239 57.2927C46.8326 57.2927 44.9219 57.3614 44.6036 56.9154C44.2453 56.5037 44.6833 55.4398 45.2005 54.8222C45.7583 54.1705 45.5987 53.6899 45.5591 52.5235C45.4391 49.4697 42.7325 46.3131 43.9265 44.1172Z" fill="black"/>
<path d="M43.4883 44.7003C43.2094 45.0435 43.5279 46.3471 43.9261 47.6168C44.3241 48.8861 45.1999 49.6411 45.3988 51.734C45.598 53.7926 45.6379 54.0673 44.961 55.2681C44.2842 56.4687 44.0852 57.5671 46.4335 57.6015C48.7819 57.6358 50.0561 57.5671 52.4442 57.876C54.8326 58.1847 55.6686 58.2875 56.9822 58.1162C58.2958 57.9445 58.5742 57.5669 58.0171 57.2241C57.4598 56.8809 55.1509 56.5035 54.156 55.817C53.2005 55.1995 50.4939 54.1702 50.4543 53.8958C50.3347 52.9691 50.2949 49.6067 50.4941 48.5087C50.6931 47.4106 50.9715 45.8324 51.0512 45.4207C51.1309 45.0089 51.5288 44.597 50.852 44.7344C50.1756 44.8714 47.6281 45.1805 45.7173 45.0774C43.8068 44.9746 43.6081 44.5972 43.4883 44.7003Z" fill="#88CE02"/>
<path opacity="0.3" d="M44.8425 55.3022C45.5191 55.5765 46.5144 55.7826 47.2704 55.7826C47.2704 55.7826 46.9916 56.9149 47.4298 57.601C47.8674 58.2872 44.2453 57.8757 44.2453 57.8757L44.0862 55.4393L44.8425 55.302V55.3022ZM55.3909 58.2529C56.0276 58.0812 56.4656 57.4638 55.9482 56.8805C55.3909 56.2971 54.9132 56.1943 55.6294 56.1599C56.3461 56.1256 58.9733 57.4981 58.9733 57.4981L57.6196 58.5618L55.3909 58.2529ZM43.3695 46.0377C44.2851 46.3125 45.6782 46.381 46.8725 46.3466C48.0666 46.3123 49.8578 46.1749 51.0123 45.8319C52.1665 45.4888 51.6889 46.2092 51.6889 46.2092L51.0519 46.724C51.0519 46.724 49.5395 47.2387 47.0717 47.2046C44.1659 47.1702 43.29 46.8957 43.29 46.8957L43.3697 46.0377H43.3695ZM43.4492 47.7535C44.3648 48.0282 45.7576 48.0967 46.9519 48.0624C48.146 48.028 49.7385 48.028 50.8927 47.6506C51.3704 47.5133 51.092 48.0967 51.092 48.0967L50.8927 48.4054C50.8927 48.4054 49.3403 48.8858 46.9121 48.8513C44.0065 48.8171 43.489 48.6111 43.489 48.6111L43.4492 47.7535Z" fill="black"/>
<path d="M40.8213 23.7012C40.8213 23.9416 43.9261 25.2794 45.6377 25.5539C47.3494 25.8284 50.9319 25.5539 51.489 25.4511L51.4093 25.9315C51.4093 25.9315 47.1502 26.4806 43.8863 25.7256C40.6223 24.9709 40.9807 24.7992 40.9807 24.7992L40.8213 23.7012Z" fill="black"/>
<path d="M34.1745 52.9689C34.6521 53.1749 36.3639 53.5521 37.4783 53.3462C37.6374 53.3119 37.4783 50.9786 37.9163 49.9151C38.5531 48.4396 39.588 47.2388 40.0654 44.6311C38.3937 44.4937 36.4832 44.1163 35.4878 43.8418C34.2143 47.2044 34.6523 50.0866 34.1745 52.9689ZM36.8417 55.1305C37.1204 55.1992 37.3191 55.4735 37.3991 55.3022C37.558 54.9931 37.1202 54.4101 37.0803 53.9984V53.964C36.7222 53.6897 34.2942 53.6553 34.4534 53.7923C34.1747 54.2384 33.7369 54.1699 33.5778 55.062C33.4983 55.5079 34.1353 55.1307 34.732 55.0963C33.6575 55.7137 32.4235 56.5032 32.2243 57.1893C31.9855 58.1499 32.3837 58.4246 33.5778 58.9394C34.613 59.1452 35.8466 59.1796 36.8019 59.1452C37.8767 58.9735 38.0759 58.5277 37.7574 57.9099C37.2793 56.9834 36.961 55.7826 36.8417 55.1305Z" fill="#EFEFEF"/>
<path d="M37.2792 10.5596C38.5926 11.2115 40.4239 11.04 41.1003 11.0056C41.2597 11.0056 42.8519 10.7654 42.9314 10.7996C43.0907 10.8339 43.0907 10.9369 43.0907 10.9369C43.0907 10.9369 42.4936 11.2113 41.1401 11.28C39.8664 11.3485 38.3538 11.28 37.5181 10.9369C36.5227 10.5596 37.2792 10.5596 37.2792 10.5596ZM50.813 11.2115C51.0515 11.3487 52.6042 11.8634 53.2808 12.481C53.8779 13.0301 53.5597 12.9957 53.4399 12.8586C53.2808 12.6868 52.0466 11.9662 51.5692 11.7949C51.0916 11.6232 50.4942 11.3145 50.4942 11.2458C50.4942 11.1771 50.813 11.2115 50.813 11.2115Z" fill="black"/>
<path d="M37.0799 25.4507C38.2341 25.382 39.4282 25.6224 40.1847 26.3085C40.5826 26.6517 41.2196 27.0289 41.14 27.3721C41.14 27.4752 40.9009 27.7497 40.7024 27.9556C40.5829 28.0925 40.2248 28.4014 40.105 28.5045C39.9461 28.6075 39.3886 28.9849 39.2693 29.0535C39.1498 29.1222 38.9904 29.294 38.8711 29.3281C38.4734 29.4998 38.0354 29.3624 37.6374 29.1909C37.2395 29.0192 37.7171 28.9849 37.2791 28.7105C36.2045 28.0586 35.6071 27.6123 36.0452 26.3428C36.085 26.1026 36.5226 25.8281 37.0799 25.4507Z" fill="#EFEFEF"/>
<path opacity="0.4" d="M26.9296 17.5941C23.3472 18.8292 14.2319 22.741 11.6445 23.942C13.7939 25.1084 14.789 27.9218 15.1077 30.7698C15.1473 31.0446 15.1872 31.2846 15.227 31.5589C15.2668 31.7993 15.3067 31.9707 15.3463 32.0739C15.3463 32.1082 15.3463 32.1769 15.3861 32.2109C17.7347 26.6868 26.1333 20.8537 26.4518 20.4076C26.6111 20.2018 26.2526 19.3096 26.8101 18.4521C27.5268 17.3539 28.9201 16.8733 26.9296 17.5941ZM35.448 43.4995C37.2788 40.343 37.3187 37.3234 37.2788 33.7892C37.2788 32.3137 38.5127 30.2208 37.876 30.804C35.4878 33.1028 29.4772 37.4262 25.1384 37.6664C31.2285 37.4947 33.6169 40.1369 35.448 43.4995Z" fill="black"/>
<path d="M8.1416 26.858C10.4105 25.4513 22.1529 20.0645 24.9794 19.3095C27.8053 18.5202 26.9295 17.5938 26.9295 17.5938C26.9295 17.5938 15.4657 21.8483 8.61923 25.5198" fill="black"/>
<path opacity="0.4" d="M41.5775 16.9418C40.6621 16.6329 39.9457 17.5594 40.1845 18.4515C40.4235 19.3436 42.5726 20.3386 42.4531 23.5984C42.3737 26.2747 41.6971 27.3725 41.6971 27.3725L40.1845 25.7258C40.1845 25.7258 39.9454 22.02 39.4282 21.4709C38.9107 20.922 37.2786 19.9268 36.6416 19.4123C36.0049 18.8975 37.3581 18.2113 37.2786 17.2507C37.1989 16.3242 37.9555 14.4713 37.9555 14.4713L41.5775 16.9418ZM47.1104 31.5586C47.0309 34.1317 47.708 37.9404 47.9862 39.7592C48.2651 41.5775 48.6232 41.7149 47.9862 42.5386C47.3494 43.3276 46.5134 44.6315 46.5134 44.6315L43.7667 44.4254C43.7667 44.4254 45.9561 42.0236 46.0752 41.5775C46.1947 41.1317 44.9608 37.7349 44.9608 37.7349L47.1106 31.5586H47.1104ZM41.8166 7.54037C42.3739 8.60381 43.0505 9.08421 44.125 9.3931C44.762 9.59916 47.2697 9.8735 48.2648 8.9127C48.7026 8.46663 48.4242 7.26562 48.4242 7.26562L46.1551 8.84401L43.0901 8.3636L42.732 7.57451L41.8166 7.54037Z" fill="black"/>
<path d="M42.0556 9.9082C43.0905 10.4914 45.6779 11.0405 46.3943 11.1434C47.1108 11.2805 48.2652 10.4914 48.8223 10.2856C49.4197 10.0454 50.4546 9.9082 51.6487 10.8347C51.7682 10.9377 51.3698 11.3836 51.3698 11.3836C51.33 11.3492 51.0914 11.3492 50.7727 11.2118C50.4544 11.0749 50.1757 10.9716 49.6981 11.0062C47.7077 11.2118 47.3894 11.7953 45.638 11.452C43.8866 11.1086 43.4489 10.8345 41.7373 10.903" fill="#88CE02"/>
<path d="M42.0556 9.9082C43.0905 10.4914 45.6779 11.0405 46.3943 11.1434C47.1108 11.2805 48.2652 10.4914 48.8223 10.2856C49.4197 10.0454 50.4546 9.9082 51.6487 10.8347C51.7682 10.9377 51.3698 11.3836 51.3698 11.3836C51.33 11.3492 51.0914 11.3492 50.7727 11.2118C50.4544 11.0749 50.1757 10.9716 49.6981 11.0062C47.7077 11.2118 47.3894 11.7953 45.638 11.452C43.8866 11.1086 43.4489 10.8345 41.7373 10.903" stroke="black" stroke-width="0.320404" stroke-linejoin="round"/>
<path d="M41.6974 10.0107C43.011 10.4911 45.5585 11.0059 46.2749 11.1431C46.9912 11.2804 48.1456 10.6627 48.7029 10.354C49.6983 9.80488 50.9718 10.2509 51.5692 10.8344C51.9669 11.2116 52.1265 11.452 52.1265 11.5548C52.1265 11.692 51.6489 11.5548 51.6489 11.5548C51.37 11.4518 51.0515 11.4176 50.8129 11.28C50.4944 11.1431 50.1759 10.9372 49.6985 10.9713C47.7081 11.1774 47.3101 11.7606 45.5986 11.4174C43.887 11.0744 43.449 10.7655 41.6182 10.8683" fill="#88CE02"/>
<path d="M35.5277 42.0579C35.448 41.9892 35.6074 41.9205 35.5277 41.9205C35.0104 41.9205 34.2937 41.5775 33.8956 41.0971C32.184 38.9698 29.6761 37.5632 25.1384 37.666C18.3318 37.8034 15.6249 35.4015 15.1077 30.8038C14.8288 28.2991 14.0329 25.8628 12.4008 24.4902L11.4453 25.005C13.2764 26.3775 13.8735 28.6078 14.2717 31.6615C14.9085 36.2593 19.2074 38.3868 24.2227 38.4553C29.4373 38.524 31.3082 39.4504 33.2586 41.7151C33.8953 42.4355 34.612 42.6757 35.1691 42.7787L35.5277 42.0579Z" fill="black"/>
<path opacity="0.4" d="M53.9972 19.9951C54.1167 20.5097 54.435 21.5048 55.0717 21.985C55.3506 22.2252 55.3905 22.2937 55.1514 22.2937C54.9124 22.2937 53.1612 22.2252 53.1612 22.2252L52.6836 21.5048L53.9972 19.9951Z" fill="black"/>
</g>
<defs>
<clipPath id="clip0_516_69">
<rect width="60" height="60" fill="white"/>
</clipPath>
</defs>
</svg>
