<svg width="60" height="60" viewBox="0 0 60 60" fill="none" xmlns="http://www.w3.org/2000/svg">
<g clip-path="url(#clip0_516_67)">
<path d="M50.5707 40.84C50.8242 40.6721 51.035 40.4303 51.1819 40.1389C51.3287 39.8474 51.4065 39.5165 51.4074 39.1794L51.4374 28.057C51.4383 27.7199 51.5161 27.3889 51.663 27.0974C51.8098 26.8059 52.0206 26.5641 52.2742 26.3962L57.5025 22.933C57.7559 22.7651 58.0431 22.677 58.3354 22.6776C58.6276 22.6781 58.9145 22.7672 59.1675 22.936C59.4204 23.1048 59.6304 23.3473 59.7764 23.6392C59.9224 23.9311 59.9992 24.2622 59.9993 24.5992V44.8202C59.9993 45.1584 59.9219 45.4905 59.775 45.7831C59.6281 46.0757 59.4169 46.3184 59.1626 46.4867L39.4308 59.5562C39.1787 59.7231 38.8932 59.8111 38.6025 59.8114C38.3118 59.8118 38.0261 59.7244 37.7738 59.5581L22.2888 49.3446C22.0337 49.1766 21.8216 48.9338 21.6741 48.6409C21.5265 48.3479 21.4487 48.0152 21.4486 47.6765V37.4802C21.4486 37.4689 21.4603 37.4613 21.4704 37.4667C21.4786 37.4727 21.4903 37.4667 21.4903 37.4532V37.4419C21.4903 37.4343 21.4936 37.4265 21.5004 37.4227L34.254 28.9738C34.2657 28.9659 34.2605 28.9448 34.2472 28.9448C34.2436 28.9448 34.2402 28.9432 34.2377 28.9403C34.2352 28.9374 34.2338 28.9335 34.2338 28.9294L34.2589 18.9332C34.2601 18.5952 34.1839 18.2628 34.0381 17.9695C33.8923 17.6762 33.6821 17.4325 33.4285 17.2629C33.1749 17.0933 32.887 17.0038 32.5939 17.0035C32.3007 17.0032 32.0127 17.092 31.7588 17.2611L22.2804 23.5597C22.0274 23.7277 21.7406 23.8161 21.4487 23.8161C21.1568 23.8161 20.87 23.7277 20.617 23.5597L11.1085 17.2462C10.8552 17.078 10.568 16.9895 10.2757 16.9897C9.98335 16.9899 9.69622 17.0788 9.44309 17.2474C9.18997 17.4161 8.97976 17.6585 8.83356 17.9504C8.68735 18.2423 8.6103 18.5734 8.61013 18.9105V36.977C8.61035 37.3137 8.53385 37.6446 8.38828 37.9365C8.24271 38.2284 8.03319 38.4711 7.7807 38.6403C7.52821 38.8094 7.24161 38.8991 6.9496 38.9003C6.6576 38.9016 6.37044 38.8143 6.11688 38.6473L0.839992 35.1678C0.584469 34.9995 0.372147 34.7562 0.224608 34.4626C0.0770692 34.169 -0.000425404 33.8355 1.75641e-06 33.4962L0.0468762 1.91782C0.0476238 1.58128 0.12499 1.25087 0.271235 0.959642C0.41748 0.668411 0.627476 0.426569 0.880218 0.258308C1.13296 0.0900475 1.41958 0.00126751 1.71142 0.000849177C2.00326 0.000430841 2.29007 0.0883889 2.54317 0.255924L20.6187 12.2273C20.8712 12.3946 21.1574 12.4826 21.4487 12.4826C21.74 12.4826 22.0261 12.3946 22.2787 12.2273L40.3488 0.255384C40.6023 0.0874532 40.8897 -0.000620728 41.1821 3.29304e-06C41.4744 0.000627314 41.7615 0.0899273 42.0145 0.258939C42.2674 0.427951 42.4774 0.670727 42.6233 0.962897C42.7692 1.25507 42.8458 1.58635 42.8456 1.92349V33.5092C42.8458 33.8471 42.7687 34.179 42.6221 34.4716C42.4755 34.7642 42.2647 35.007 42.0108 35.1757L32.5473 41.4605C32.2931 41.6295 32.082 41.8728 31.9355 42.166C31.789 42.4591 31.7122 42.7917 31.7129 43.13C31.7135 43.4684 31.7917 43.8005 31.9393 44.0929C32.087 44.3852 32.299 44.6275 32.5538 44.7951L37.774 48.2221C38.0263 48.3877 38.3117 48.4744 38.6019 48.4737C38.8922 48.473 39.1773 48.3849 39.4289 48.2181L50.571 40.8397L50.5707 40.84ZM51.6657 12.5062C51.6659 12.8461 51.7443 13.1799 51.8929 13.4735C52.0415 13.767 52.2549 14.0099 52.5114 14.1774C52.7679 14.3448 53.0584 14.4308 53.3531 14.4265C53.6479 14.4223 53.9364 14.328 54.1892 14.1532L59.1893 10.6938C59.4361 10.5232 59.6404 10.2819 59.7824 9.99326C59.9243 9.70463 59.9991 9.37854 59.9993 9.04673V1.99674C59.9988 1.65698 59.9202 1.32345 59.7715 1.03013C59.6228 0.736814 59.4094 0.494191 59.1529 0.326984C58.8964 0.159778 58.6061 0.0739648 58.3115 0.0782889C58.0169 0.0826131 57.7285 0.17692 57.4758 0.3516L52.4759 3.81106C52.229 3.9816 52.0247 4.22296 51.8827 4.51164C51.7407 4.80032 51.6659 5.12648 51.6657 5.45836V12.5081V12.5062Z" fill="#007FFF"/>
</g>
<defs>
<clipPath id="clip0_516_67">
<rect width="60" height="60" fill="white"/>
</clipPath>
</defs>
</svg>
