<svg width="28" height="60" viewBox="0 0 28 60" fill="none" xmlns="http://www.w3.org/2000/svg">
<g clip-path="url(#clip0_516_26)">
<path d="M19.1947 6.67845C16.6799 3.69473 14.5143 0.66424 14.0719 0.0349508C14.0614 0.0239068 14.0488 0.015114 14.0347 0.00910601C14.0207 0.003098 14.0056 0 13.9904 0C13.9751 0 13.9601 0.003098 13.946 0.00910601C13.932 0.015114 13.9194 0.0239068 13.9089 0.0349508C13.4665 0.66435 11.3009 3.69473 8.78602 6.67845C-12.7994 34.2081 12.1858 52.7866 12.1858 52.7866L12.3953 52.9265C12.5815 55.7936 13.0473 59.9198 13.0473 59.9198H14.9102C14.9102 59.9198 15.3757 55.817 15.5621 52.9266L15.7717 52.7634C15.795 52.7868 40.7802 34.2082 19.1947 6.67845ZM13.9787 52.367C13.9787 52.367 12.861 51.4113 12.5583 50.9219V50.8752L13.9089 20.8979C13.9089 20.8047 14.0486 20.8047 14.0486 20.8979L15.3991 50.8752V50.9219C15.0964 51.4113 13.9787 52.3671 13.9787 52.3671V52.367Z" fill="#01EC64"/>
</g>
<defs>
<clipPath id="clip0_516_26">
<rect width="27.98" height="60" fill="white"/>
</clipPath>
</defs>
</svg>
