<svg width="60" height="60" viewBox="0 0 60 60" fill="none" xmlns="http://www.w3.org/2000/svg">
<g clip-path="url(#clip0_516_113)">
<path d="M15.8825 0H44.1175C48.3298 0 52.3696 1.67333 55.3481 4.65188C58.3267 7.63042 60 11.6702 60 15.8825V44.1175C60 48.3298 58.3267 52.3696 55.3481 55.3481C52.3696 58.3267 48.3298 60 44.1175 60H15.8825C11.6702 60 7.63042 58.3267 4.65188 55.3481C1.67333 52.3696 0 48.3298 0 44.1175L0 15.8825C0 11.6702 1.67333 7.63042 4.65188 4.65188C7.63042 1.67333 11.6702 0 15.8825 0ZM35.27 17.2825H32.9375V34.0375C32.9601 35.3044 32.6479 36.5549 32.0325 37.6625C31.4325 38.7225 30.5425 39.5875 29.47 40.1625C28.3625 40.7725 27.07 41.075 25.5875 41.075C24.1075 41.075 22.8175 40.7725 21.7125 40.165C20.6423 39.5873 19.7555 38.7212 19.1525 37.665C18.5328 36.5587 18.2179 35.3078 18.24 34.04V17.28H15.9075V34.1975C15.8795 35.832 16.3025 37.4427 17.13 38.8525C17.9475 40.22 19.125 41.3375 20.535 42.0825C21.99 42.8725 23.675 43.2675 25.5875 43.2675C27.51 43.2675 29.1975 42.875 30.6475 42.09C32.056 41.3449 33.2323 40.2266 34.0475 38.8575C34.8725 37.445 35.2975 35.8325 35.2725 34.1975V17.2825H35.27ZM44.39 42.8325V17.285H42.0575V42.835H44.39V42.8325Z" fill="black"/>
</g>
<defs>
<clipPath id="clip0_516_113">
<rect width="60" height="60" fill="white"/>
</clipPath>
</defs>
</svg>
