<svg width="60" height="60" viewBox="0 0 60 60" fill="none" xmlns="http://www.w3.org/2000/svg">
<path d="M29.9998 56.2502C29.2916 56.2505 28.5957 56.0643 27.9823 55.7102L21.5623 51.9096C20.6042 51.3734 21.0711 51.184 21.3879 51.0734C22.407 50.7586 23.3826 50.3176 24.2923 49.7609C24.3685 49.7256 24.4523 49.7104 24.536 49.7167C24.6197 49.7229 24.7004 49.7504 24.7704 49.7965L29.7036 52.7271C29.7954 52.7757 29.8978 52.8011 30.0017 52.8011C30.1056 52.8011 30.208 52.7757 30.2998 52.7271L49.5373 41.6234C49.6273 41.5694 49.7018 41.493 49.7534 41.4017C49.805 41.3103 49.832 41.2071 49.8317 41.1021V18.8909C49.8318 18.7843 49.8044 18.6794 49.7521 18.5865C49.6999 18.4936 49.6246 18.4156 49.5336 18.3602L30.2961 7.26587C30.2054 7.21478 30.103 7.18794 29.9989 7.18794C29.8948 7.18794 29.7924 7.21478 29.7017 7.26587L10.4754 18.364C10.3837 18.4182 10.3076 18.4952 10.2544 18.5875C10.2012 18.6798 10.1727 18.7843 10.1717 18.8909V41.0927C10.172 41.1975 10.2 41.3002 10.2531 41.3905C10.3061 41.4808 10.3822 41.5553 10.4736 41.6065L15.7498 44.6515C18.6092 46.0802 20.3604 44.3965 20.3604 42.7052V20.7846C20.3604 20.6354 20.4197 20.4924 20.5252 20.3869C20.6307 20.2814 20.7738 20.2221 20.9229 20.2221H23.3604C23.5096 20.2221 23.6527 20.2814 23.7582 20.3869C23.8637 20.4924 23.9229 20.6354 23.9229 20.7846V42.7071C23.9229 46.5227 21.8454 48.7071 18.2267 48.7071C16.6655 48.7343 15.1288 48.3168 13.7961 47.5034L8.73919 44.6027C8.1253 44.2452 7.61591 43.733 7.26189 43.1171C6.90788 42.5011 6.72161 41.8032 6.72169 41.0927V18.8909C6.71987 18.1794 6.90535 17.4799 7.25949 16.8628C7.61363 16.2457 8.12396 15.7326 8.73919 15.3752L27.9786 4.26775C28.5983 3.92869 29.2934 3.75098 29.9998 3.75098C30.7062 3.75098 31.4013 3.92869 32.0211 4.26775L51.2586 15.3752C51.8724 15.732 52.3819 16.2436 52.7362 16.8588C53.0906 17.4741 53.2774 18.1715 53.2779 18.8815V41.0927C53.2769 41.8031 53.0899 42.5009 52.7357 43.1167C52.3814 43.7324 51.8722 44.2448 51.2586 44.6027L32.0211 55.7102C31.4065 56.0648 30.7093 56.2511 29.9998 56.2502Z" fill="#83CD29"/>
<path d="M26.3516 33.6615C26.3516 33.5123 26.4108 33.3692 26.5163 33.2637C26.6218 33.1582 26.7649 33.099 26.9141 33.099H29.4022C29.5351 33.0994 29.6636 33.1469 29.7649 33.2331C29.8661 33.3192 29.9336 33.4384 29.9553 33.5696C30.3303 36.1027 31.4553 37.3796 36.5422 37.3796C40.5941 37.3796 42.3209 36.4627 42.3209 34.3121C42.3209 33.0727 41.8316 32.1521 35.5334 31.5352C30.2684 31.014 27.0134 29.8477 27.0134 25.6402C27.0134 21.759 30.2853 19.4434 35.7697 19.4434C41.9328 19.4434 44.9834 21.5827 45.3697 26.1727C45.3756 26.2494 45.3657 26.3264 45.3407 26.3991C45.3157 26.4717 45.276 26.5385 45.2242 26.5952C45.1724 26.652 45.1094 26.6975 45.0393 26.729C44.9692 26.7605 44.8934 26.7773 44.8166 26.7784H42.3116C42.1859 26.7766 42.0644 26.7328 41.9666 26.654C41.8687 26.5751 41.8 26.4658 41.7716 26.3434C41.1734 23.679 39.7091 22.8277 35.7716 22.8277C31.3466 22.8277 30.8328 24.369 30.8328 25.524C30.8328 26.9227 31.4403 27.3315 37.4141 28.1209C43.3259 28.9027 46.1347 30.009 46.1347 34.164C46.1347 38.3565 42.6397 40.7565 36.5441 40.7565C28.1159 40.7677 26.3516 36.9034 26.3516 33.6615Z" fill="#83CD29"/>
</svg>
