<svg width="60" height="60" viewBox="0 0 60 60" fill="none" xmlns="http://www.w3.org/2000/svg">
<g clip-path="url(#clip0_516_126)">
<path d="M31.1517 0.00642264C30.6111 -0.0292614 30.0711 0.0842452 29.5907 0.334551C29.1102 0.584858 28.7078 0.962342 28.4273 1.4258L5.98821 38.022C5.69585 38.4987 5.54297 39.0477 5.54695 39.6068C5.55093 40.166 5.7116 40.7128 6.01071 41.1852L17.0582 58.6161C17.4086 59.1655 17.9287 59.5855 18.5395 59.8125C19.1503 60.0395 19.8185 60.061 20.4426 59.8738L52.3232 50.308C52.7327 50.1854 53.111 49.9764 53.4328 49.695C53.7545 49.4136 54.012 49.0664 54.188 48.6769C54.364 48.2874 54.4543 47.8646 54.4528 47.4372C54.4513 47.0098 54.3581 46.5877 54.1795 46.1994L33.6857 1.73845C33.4628 1.24537 33.1087 0.823027 32.6621 0.517569C32.2154 0.212111 31.6934 0.0352889 31.1531 0.00642264H31.1517ZM31.9931 11.233C32.2314 11.2045 32.4725 11.2547 32.6797 11.376C32.8869 11.4972 33.0487 11.6829 33.1406 11.9047L47.2781 44.616C47.341 44.7613 47.3725 44.9184 47.3703 45.0768C47.3681 45.2352 47.3323 45.3914 47.2653 45.535C47.1984 45.6785 47.1017 45.8063 46.9817 45.9097C46.8617 46.0132 46.7212 46.09 46.5693 46.1352L24.5399 52.7089C24.3548 52.7639 24.1586 52.7701 23.9704 52.7269C23.7822 52.6837 23.6084 52.5926 23.4657 52.4625C23.3231 52.3323 23.2165 52.1674 23.1564 51.9839C23.0962 51.8005 23.0845 51.6045 23.1224 51.4152L31.0115 12.1283C31.0557 11.8923 31.1757 11.6772 31.3533 11.5156C31.5309 11.354 31.7563 11.2548 31.9954 11.233H31.9931Z" fill="#2D3748"/>
</g>
<defs>
<clipPath id="clip0_516_126">
<rect width="60" height="60" fill="white"/>
</clipPath>
</defs>
</svg>
