<svg width="68" height="60" viewBox="0 0 68 60" fill="none" xmlns="http://www.w3.org/2000/svg">
<g clip-path="url(#clip0_516_21)">
<path d="M55.3912 19.4273C54.6743 19.1813 53.9513 18.9535 53.2228 18.7439C53.3452 18.2439 53.4578 17.75 53.5578 17.2647C55.1994 9.29601 54.1262 2.87627 50.4607 0.762586C46.9462 -1.26373 41.1986 0.849165 35.3939 5.90101C34.8218 6.39978 34.2624 6.91293 33.7162 7.43995C33.3506 7.0895 32.9785 6.74584 32.6002 6.40916C26.5165 1.00759 20.4186 -1.26899 16.757 0.850744C13.2457 2.88338 12.206 8.91838 13.6839 16.4705C13.8309 17.2184 13.9969 17.9625 14.1818 18.7021C13.3186 18.9473 12.4857 19.2084 11.6886 19.4863C4.55598 21.9731 0.000976562 25.8702 0.000976562 29.9126C0.000976562 34.0876 4.89098 38.2752 12.3199 40.8144C12.9222 41.0194 13.5295 41.2094 14.1412 41.3842C13.9426 42.1807 13.7662 42.9826 13.6123 43.7889C12.2033 51.21 13.3036 57.1023 16.8055 59.1221C20.4223 61.2079 26.4928 59.0642 32.4036 53.8971C32.8829 53.477 33.3517 53.045 33.8094 52.6015C34.4009 53.1722 35.0081 53.7263 35.6305 54.2631C41.3562 59.19 47.011 61.1794 50.5094 59.1542C54.1228 57.0623 55.2973 50.7323 53.7726 43.031C53.6524 42.4277 53.5178 41.8273 53.3686 41.2305C53.7949 41.1042 54.2133 40.9742 54.6212 40.8389C62.3444 38.2802 67.3694 34.1434 67.3694 29.9126C67.3694 25.8555 62.6673 21.9321 55.3912 19.4273ZM53.7162 38.1073C53.3478 38.2292 52.9699 38.3468 52.5847 38.4613C51.732 35.7621 50.5815 32.8921 49.1733 29.9265C50.517 27.0318 51.6233 24.1984 52.452 21.5168C53.1412 21.7163 53.8099 21.9265 54.4547 22.1484C60.6889 24.2947 64.4915 27.4676 64.4915 29.9126C64.4915 32.5168 60.3847 35.8976 53.7162 38.1073ZM50.9494 43.59C51.6236 46.9952 51.7197 50.0742 51.2731 52.4813C50.872 54.6442 50.0652 56.086 49.0673 56.6636C46.9444 57.8926 42.4041 56.2952 37.5076 52.0815C36.9287 51.5824 36.3638 51.0673 35.8136 50.5368C37.712 48.4607 39.6091 46.0473 41.4607 43.3668C44.7176 43.0779 47.7944 42.6052 50.5847 41.9602C50.7191 42.5005 50.8407 43.0439 50.9494 43.59ZM22.9683 56.4513C20.8941 57.1836 19.242 57.2047 18.2433 56.6289C16.1183 55.4034 15.2349 50.6721 16.4399 44.3257C16.5832 43.5758 16.7472 42.83 16.9318 42.0892C19.6912 42.6997 22.7457 43.1386 26.0102 43.4034C27.8744 46.0263 29.8262 48.4371 31.7933 50.5481C31.3753 50.9526 30.9474 51.3468 30.5099 51.7302C27.896 54.015 25.2768 55.636 22.9683 56.4513ZM13.251 38.0913C9.96598 36.9684 7.25308 35.5092 5.39361 33.9168C3.72256 32.486 2.87913 31.0652 2.87913 29.9126C2.87913 27.4594 6.53624 24.3305 12.636 22.2039C13.3762 21.946 14.151 21.7026 14.9549 21.4742C15.7981 24.2163 16.9039 27.0834 18.2383 29.9826C16.8865 32.9247 15.7649 35.8376 14.9136 38.6121C14.3552 38.4521 13.8008 38.2785 13.251 38.0913ZM16.5083 15.9176C15.2423 9.44732 16.0831 4.56653 18.1991 3.34153C20.4528 2.0368 25.4365 3.89706 30.6894 8.56127C31.0319 8.86611 31.3689 9.17712 31.7002 9.49416C29.7428 11.596 27.8089 13.9889 25.9612 16.5963C22.7928 16.89 19.7599 17.3615 16.9715 17.9934C16.7997 17.3055 16.6453 16.6132 16.5083 15.9176ZM45.5681 23.0934C44.9095 21.9557 44.2264 20.8324 43.5194 19.7242C45.6689 19.996 47.7283 20.3568 49.6623 20.7978C49.0818 22.6589 48.3581 24.6044 47.5062 26.5992C46.8836 25.4178 46.2374 24.249 45.5681 23.0934ZM33.7176 11.551C35.0449 12.9892 36.3744 14.5947 37.682 16.3368C35.0294 16.2115 32.3723 16.211 29.7197 16.3352C31.0286 14.6092 32.3694 13.0057 33.7176 11.551ZM21.791 23.1131C21.13 24.2594 20.4959 25.4209 19.8891 26.5968C19.0512 24.6092 18.3341 22.6547 17.7486 20.7673C19.6707 20.3373 21.7205 19.9857 23.8562 19.7189C23.1414 20.8339 22.4527 21.9658 21.791 23.1131ZM23.9176 40.311C21.711 40.0647 19.6305 39.7313 17.7089 39.3129C18.3036 37.3918 19.0365 35.3957 19.8926 33.3655C20.5017 34.5422 21.1385 35.7045 21.8023 36.8513C22.4849 38.0302 23.1918 39.185 23.9176 40.311ZM33.797 48.4768C32.4328 47.0052 31.0723 45.3771 29.7436 43.626C31.0336 43.6765 32.3486 43.7023 33.6852 43.7023C35.0583 43.7023 36.4157 43.6715 37.7518 43.6121C36.4399 45.3947 35.1155 47.0252 33.797 48.4768ZM47.5333 33.2618C48.4339 35.3144 49.1928 37.3 49.7955 39.1881C47.8423 39.6339 45.7333 39.9929 43.5112 40.2594C44.2233 39.1306 44.9128 37.9878 45.5794 36.8315C46.2571 35.6563 46.9086 34.4661 47.5333 33.2618ZM43.0865 35.3936C42.066 37.1664 40.9882 38.9054 39.8547 40.6081C37.8014 40.7535 35.7436 40.8258 33.6852 40.8247C31.5886 40.8247 29.5494 40.7594 27.5857 40.6321C26.4226 38.9333 25.3242 37.1912 24.2928 35.4094C23.2663 33.6371 22.3077 31.8264 21.4186 29.9813C22.3054 28.1357 23.2614 26.3242 24.2844 24.5505L24.2841 24.5507C25.3068 22.7766 26.3964 21.0419 27.5507 19.3505C29.5541 19.1989 31.6086 19.12 33.6849 19.12C35.7707 19.12 37.8281 19.1997 39.831 19.3523C40.9736 21.0412 42.0563 22.7699 43.077 24.5352C44.1035 26.305 45.072 28.1077 45.9812 29.9405C45.0814 31.792 44.1158 33.6109 43.0865 35.3936ZM49.0233 3.25574C51.2791 4.5568 52.1565 9.80337 50.7391 16.6836C50.6486 17.1226 50.547 17.5697 50.4365 18.0231C47.6412 17.3778 44.6062 16.8981 41.4286 16.6C39.5776 13.9639 37.6594 11.5673 35.7339 9.49259C36.2385 9.00614 36.7552 8.53231 37.2833 8.07153C42.257 3.74338 46.9055 2.03443 49.0233 3.25574ZM33.6852 23.8968C37.0076 23.8968 39.701 26.5902 39.701 29.9126C39.701 33.235 37.0076 35.9284 33.6852 35.9284C30.3628 35.9284 27.6694 33.235 27.6694 29.9126C27.6694 26.5902 30.3628 23.8968 33.6852 23.8968Z" fill="#00D8FF"/>
</g>
<defs>
<clipPath id="clip0_516_21">
<rect width="67.37" height="60" fill="white"/>
</clipPath>
</defs>
</svg>
