<svg width="60" height="60" viewBox="0 0 60 60" fill="none" xmlns="http://www.w3.org/2000/svg">
<g clip-path="url(#clip0_516_37)">
<path d="M45.9375 0H14.0625C6.296 0 0 6.296 0 14.0625V45.9375C0 53.704 6.296 60 14.0625 60H45.9375C53.704 60 60 53.704 60 45.9375V14.0625C60 6.296 53.704 0 45.9375 0Z" fill="#CD6799"/>
<mask id="mask0_516_37" style="mask-type:luminance" maskUnits="userSpaceOnUse" x="6" y="12" width="48" height="36">
<path d="M6.5625 12.4219H53.4375V47.5568H6.5625V12.4219Z" fill="white"/>
</mask>
<g mask="url(#mask0_516_37)">
<path d="M46.9003 32.6167C45.2658 32.6251 43.8454 33.0189 42.656 33.6006C42.2196 32.7364 41.7832 31.9663 41.7061 31.4014C41.6205 30.7426 41.5179 30.3404 41.6205 29.5532C41.7232 28.7659 42.1854 27.6451 42.1767 27.5596C42.1683 27.4738 42.074 27.0718 41.1328 27.0632C40.1915 27.0547 39.3787 27.2429 39.2845 27.4911C39.1903 27.7391 39.0108 28.3039 38.891 28.8859C38.7283 29.7416 37.0083 32.7964 36.0244 34.3965C35.7077 33.7719 35.434 33.2242 35.374 32.7878C35.2884 32.1289 35.1858 31.7268 35.2884 30.9395C35.3911 30.1522 35.8533 29.0312 35.8446 28.9457C35.8361 28.8601 35.7419 28.4579 34.8007 28.4495C33.8594 28.4408 33.0464 28.629 32.9524 28.8772C32.8582 29.1254 32.7555 29.7074 32.5586 30.272C32.362 30.8368 30.0773 35.9368 29.4783 37.2545C29.2362 37.7877 28.9823 38.3155 28.7168 38.8375C28.7168 38.8375 28.7081 38.8632 28.6826 38.9059C28.599 39.0696 28.5134 39.2322 28.4257 39.3936V39.4023C28.2975 39.6334 28.1604 39.8471 28.0919 39.8471C28.0406 39.8471 27.9466 39.2312 28.109 38.3926C28.4515 36.6212 29.2643 33.8659 29.2558 33.7719C29.2558 33.7206 29.4098 33.2413 28.7252 32.9931C28.0577 32.7449 27.8182 33.1557 27.7582 33.1557C27.6984 33.1557 27.6555 33.3013 27.6555 33.3013C27.6555 33.3013 28.4001 30.2036 26.2352 30.2036C24.8831 30.2036 23.0177 31.6839 22.0938 33.0189C21.0432 33.5905 19.9934 34.1638 18.9445 34.7387C18.4399 35.0211 17.9179 35.3036 17.43 35.5689C17.3958 35.5346 17.3615 35.4918 17.3273 35.4575C14.7089 32.6593 9.86576 30.6828 10.0711 26.9263C10.1482 25.5571 10.6188 21.9632 19.3725 17.5991C26.5774 14.0481 32.3107 15.032 33.3033 17.214C34.7236 20.3289 30.2313 26.1132 22.7868 26.9518C19.9458 27.2685 18.457 26.1732 18.0806 25.7626C17.6868 25.3346 17.6268 25.3091 17.4813 25.3946C17.2418 25.5228 17.3958 25.9079 17.4813 26.1303C17.704 26.7123 18.6194 27.7391 20.1682 28.2439C21.5374 28.689 24.866 28.9372 28.8963 27.3798C33.4059 25.6342 36.9314 20.7821 35.8959 16.7178C34.8607 12.5933 28.0151 11.2328 21.5374 13.5346C17.6866 14.9038 13.511 17.06 10.5075 19.8667C6.93912 23.2042 6.37451 26.1048 6.6056 27.3198C7.43552 31.6325 13.3826 34.4392 15.7615 36.5186C15.6417 36.587 15.5304 36.647 15.4364 36.6983C14.2469 37.2887 9.71177 39.6589 8.58208 42.1663C7.29865 45.0071 8.78763 47.0436 9.77154 47.3174C12.8264 48.1646 15.9668 46.6414 17.6526 44.1257C19.3383 41.6099 19.1329 38.3413 18.3541 36.8439C18.3458 36.8249 18.3342 36.8075 18.3199 36.7925C18.6281 36.6128 18.9445 36.4246 19.2527 36.2448C19.819 35.9102 20.3924 35.5877 20.9726 35.2778C20.6817 36.0737 20.4677 37.0234 20.3651 38.3926C20.2368 40.0014 20.8957 42.0892 21.7598 42.9107C22.1449 43.27 22.5984 43.2786 22.8895 43.2786C23.8992 43.2786 24.3527 42.44 24.8576 41.4475C25.4735 40.2322 26.0299 38.8203 26.0299 38.8203C26.0299 38.8203 25.3366 42.6369 27.2191 42.6369C27.9037 42.6369 28.5968 41.747 28.905 41.2935V41.3019C28.905 41.3019 28.9221 41.2764 28.9563 41.2164C29.0247 41.105 29.0674 41.0366 29.0674 41.0366V41.0195C29.3414 40.5404 29.9573 39.4536 30.873 37.648C32.0538 35.3207 33.1919 32.4114 33.1919 32.4114C33.1919 32.4114 33.2946 33.1215 33.6454 34.3023C33.8508 34.9956 34.2787 35.7571 34.6209 36.493C34.3472 36.8781 34.1761 37.0918 34.1761 37.0918L34.1845 37.1005C33.9621 37.3914 33.7226 37.708 33.4572 38.016C32.5244 39.1285 31.4121 40.4035 31.2581 40.7715C31.0783 41.2079 31.1212 41.5243 31.4634 41.7812C31.7116 41.9694 32.1565 41.995 32.61 41.9694C33.4486 41.9094 34.0392 41.7041 34.3301 41.5757C34.7836 41.4132 35.3142 41.165 35.8104 40.7971C36.7261 40.1211 37.2822 39.1541 37.2309 37.8791C37.2051 37.1774 36.974 36.4759 36.6918 35.8168C36.7774 35.6971 36.8543 35.5773 36.9398 35.4575C38.3861 33.3439 39.5069 31.025 39.5069 31.025C39.5069 31.025 39.6096 31.7352 39.9604 32.9162C40.1315 33.515 40.4824 34.1654 40.7906 34.7987C39.4301 35.9026 38.5915 37.186 38.2919 38.0246C37.7529 39.5821 38.1722 40.2835 38.9679 40.4462C39.3274 40.5233 39.8407 40.3522 40.2173 40.1896C40.6964 40.0356 41.2612 39.7703 41.8003 39.3765C42.7158 38.7006 43.5972 37.7593 43.5459 36.4843C43.5201 35.9026 43.3661 35.3291 43.1522 34.7729C44.3074 34.2939 45.7964 34.0285 47.696 34.251C51.7692 34.7303 52.5736 37.2716 52.4194 38.3413C52.2654 39.4107 51.4097 39.9927 51.1272 40.1725C50.8451 40.3522 50.7508 40.412 50.7766 40.5404C50.8108 40.7286 50.9477 40.72 51.1872 40.6857C51.521 40.626 53.3264 39.8216 53.4035 37.8536C53.5319 35.3378 51.1359 32.5909 46.9003 32.6167ZM15.479 43.2102C14.1272 44.6818 12.2447 45.2382 11.4316 44.7676C10.5588 44.2625 10.901 42.0892 12.5613 40.5318C13.5708 39.5821 14.8715 38.7006 15.7357 38.1615C15.9326 38.0418 16.2234 37.8707 16.5743 37.6567C16.6343 37.6225 16.6685 37.6053 16.6685 37.6053L16.8738 37.4769C17.4813 39.7018 16.8993 41.6614 15.479 43.2102ZM25.3195 36.5186C24.8489 37.6653 23.865 40.6002 23.2659 40.4378C22.7526 40.3007 22.436 38.076 23.1633 35.8768C23.5312 34.7729 24.3098 33.4553 24.7633 32.9418C25.4993 32.1203 26.3121 31.8465 26.509 32.1803C26.7572 32.6167 25.6106 35.7997 25.3195 36.5186ZM33.4401 40.4035C33.2433 40.5062 33.0551 40.5746 32.9695 40.5233C32.9095 40.4891 33.0551 40.3522 33.0551 40.3522C33.0551 40.3522 34.0734 39.2568 34.4756 38.7606C34.7065 38.4695 34.9804 38.1273 35.2713 37.7422V37.8536C35.2713 39.1628 34.005 40.044 33.4401 40.4035ZM39.7038 38.9743C39.5583 38.8717 39.584 38.5295 40.0718 37.4598C40.26 37.0405 40.7051 36.339 41.4665 35.6628C41.5521 35.9368 41.6121 36.2019 41.6034 36.4501C41.595 38.1018 40.414 38.7177 39.7038 38.9743Z" fill="white"/>
</g>
</g>
<defs>
<clipPath id="clip0_516_37">
<rect width="60" height="60" fill="white"/>
</clipPath>
</defs>
</svg>
