<svg width="60" height="60" viewBox="0 0 60 60" fill="none" xmlns="http://www.w3.org/2000/svg">
<g clip-path="url(#clip0_516_128)">
<path d="M29.9766 0C13.4508 0 0 13.4508 0 29.9766C0 46.5023 13.4508 59.9531 29.9766 59.9531C46.5023 59.9531 59.9531 46.5023 59.9531 29.9766C59.9531 13.4508 46.5028 0 29.9766 0ZM29.9766 5.00578C43.7972 5.00578 54.9478 16.1559 54.9478 29.9766C54.9478 43.7977 43.7972 54.9478 29.9766 54.9478C16.1559 54.9478 5.00531 43.7977 5.00531 29.9766C5.00531 16.1559 16.1559 5.00578 29.9766 5.00578Z" fill="#010101"/>
<path fill-rule="evenodd" clip-rule="evenodd" d="M22.6823 28.4603C29.2467 23.0978 35.6676 17.5487 42.375 12.3428C38.857 17.7489 35.2387 23.0832 31.7207 28.4889C28.7034 28.5029 25.6856 28.5029 22.6823 28.4603ZM28.2314 31.449C31.2632 31.449 34.2806 31.449 37.2979 31.4921C30.6909 36.8265 24.2986 42.4182 17.5771 47.6097C21.0951 42.2036 24.7134 36.8551 28.2314 31.449Z" fill="#010101"/>
</g>
<defs>
<clipPath id="clip0_516_128">
<rect width="60" height="60" fill="white"/>
</clipPath>
</defs>
</svg>
