<svg width="60" height="60" viewBox="0 0 60 60" fill="none" xmlns="http://www.w3.org/2000/svg">
<path d="M58.4836 9.14986L31.5577 57.2989C31.0013 58.2931 29.573 58.2988 29.0091 57.3102L1.54879 9.15548C0.933318 8.07642 1.85441 6.77095 3.07738 6.98892L30.0324 11.8063C30.2044 11.8377 30.3807 11.8377 30.5527 11.8063L56.9433 6.99642C58.1611 6.7747 59.0878 8.06939 58.4836 9.14986Z" fill="url(#paint0_linear_516_132)"/>
<path d="M42.8722 0.670353L22.9475 4.5741C22.7885 4.60518 22.6443 4.68819 22.5376 4.81011C22.4308 4.93203 22.3676 5.08595 22.3578 5.2477L21.1311 25.9514C21.1245 26.065 21.1445 26.1785 21.1893 26.283C21.2342 26.3875 21.3028 26.4801 21.3897 26.5535C21.4765 26.6269 21.5793 26.6791 21.6898 26.7059C21.8003 26.7327 21.9156 26.7334 22.0264 26.708L27.5746 25.426C27.694 25.3985 27.8185 25.4015 27.9365 25.4347C28.0546 25.4678 28.1624 25.5301 28.2501 25.6157C28.3378 25.7014 28.4026 25.8077 28.4386 25.9249C28.4745 26.0421 28.4804 26.1665 28.4558 26.2866L26.8072 34.358C26.782 34.4822 26.7895 34.6109 26.8289 34.7314C26.8684 34.8518 26.9384 34.96 27.0322 35.0453C27.126 35.1305 27.2403 35.19 27.364 35.2179C27.4876 35.2457 27.6164 35.241 27.7377 35.2041L31.1633 34.1621C31.6944 34.0008 32.2053 34.4677 32.0938 35.0114L29.4735 47.6897C29.3103 48.4829 30.365 48.915 30.8047 48.2354L31.0977 47.7816L47.3352 15.3769C47.608 14.8332 47.1378 14.2144 46.543 14.3297L40.8313 15.4322C40.7084 15.4561 40.5814 15.448 40.4625 15.4086C40.3437 15.3693 40.2369 15.3001 40.1525 15.2076C40.0681 15.1151 40.0089 15.0025 39.9806 14.8805C39.9523 14.7585 39.9558 14.6313 39.9908 14.5111L43.7174 1.59145C43.7524 1.47081 43.7558 1.34318 43.7271 1.22087C43.6985 1.09855 43.6389 0.985676 43.5539 0.893116C43.469 0.800556 43.3617 0.731435 43.2423 0.692417C43.1229 0.6534 42.9954 0.645801 42.8722 0.670353Z" fill="url(#paint1_linear_516_132)"/>
<defs>
<linearGradient id="paint0_linear_516_132" x1="0.877631" y1="5.26842" x2="34.3903" y2="50.7813" gradientUnits="userSpaceOnUse">
<stop stop-color="#41D1FF"/>
<stop offset="1" stop-color="#BD34FE"/>
</linearGradient>
<linearGradient id="paint1_linear_516_132" x1="28.4863" y1="1.72972" x2="34.5486" y2="43.3164" gradientUnits="userSpaceOnUse">
<stop stop-color="#FFEA83"/>
<stop offset="0.083" stop-color="#FFDD35"/>
<stop offset="1" stop-color="#FFA800"/>
</linearGradient>
</defs>
</svg>
