<svg width="60" height="60" viewBox="0 0 60 60" fill="none" xmlns="http://www.w3.org/2000/svg">
<g clip-path="url(#clip0_516_63)">
<path fill-rule="evenodd" clip-rule="evenodd" d="M30.0443 59.1671C46.1107 59.1427 59.1166 46.0735 59.1166 29.9522C59.1166 14.093 46.1707 1.03176 30.7043 0.755662C14.4611 0.465975 0.888009 13.6463 0.88379 29.6293C0.879103 46.0725 13.8269 59.1905 30.0443 59.1671ZM29.9969 2.16988C45.4221 2.16472 57.7122 14.6972 57.7075 30.4261C57.7024 45.2757 45.0864 57.698 30.0082 57.7013C14.6468 57.7046 2.29332 45.2499 2.29379 29.76C2.29473 14.6696 14.8404 2.17504 29.9969 2.16988ZM18.355 16.8258C18.6072 17.6663 17.9013 17.9588 17.1508 18.0174C16.361 18.0783 15.5716 18.1379 14.6547 18.2077C17.681 27.2236 20.6618 36.106 23.7133 45.195C23.9308 44.8393 24.0204 44.7389 24.0597 44.6218C25.735 39.6146 27.4197 34.6107 29.0524 29.5894C29.2014 29.1314 29.1274 28.5249 28.9643 28.0543C28.1004 25.5605 27.0654 23.1211 26.3079 20.5974C25.7899 18.8696 25.1027 17.7516 23.0604 17.9518C22.7125 17.986 22.2879 17.2374 21.8983 16.8507C22.3694 16.5694 22.8372 16.0519 23.3125 16.0449C27.4714 15.981 31.6309 15.9822 35.7897 16.0486C36.2669 16.0566 36.7347 16.5877 37.2058 16.876C36.7933 17.2528 36.4375 17.8182 35.9552 17.9639C35.1813 18.1974 34.323 18.1533 33.3968 18.2358L42.4666 45.2171C43.8405 40.6533 45.1188 36.4627 46.3619 32.2613C47.471 28.5108 46.81 25.0083 44.8047 21.705C44.2019 20.7118 43.4613 19.748 43.1196 18.6647C42.7314 17.4324 42.4089 16.0294 42.6147 14.7933C42.9639 12.6985 44.5713 11.6583 46.7463 11.4591C34.8438 0.412538 16.1397 4.36691 9.2477 16.3693C11.9008 16.2469 14.4339 16.0861 16.9689 16.0514C17.448 16.0453 18.2425 16.4503 18.355 16.8258ZM23.0974 53.3747C23.0421 53.5364 23.0388 53.7164 22.9952 53.985C28.1247 55.4072 33.1554 55.3046 38.3041 53.5697L30.4385 32.026C27.9213 39.3436 25.5072 46.358 23.0974 53.3747ZM19.1336 52.4007L7.28317 19.8928C1.93707 30.3357 6.00395 46.2685 19.1336 52.4007ZM54.9593 31.5122C55.3352 26.5744 53.6318 19.7377 52.1608 18.7974C51.9968 20.6138 52.1111 22.6346 51.5899 24.4758C50.3632 28.8141 48.8632 33.0769 47.4185 37.3514C45.8482 41.9977 44.216 46.6228 42.6105 51.2574C50.1536 46.786 54.2988 40.1864 54.9593 31.5122Z" fill="#0073AA"/>
</g>
<defs>
<clipPath id="clip0_516_63">
<rect width="60" height="60" fill="white"/>
</clipPath>
</defs>
</svg>
